<?xml version="1.0" encoding="utf-8" standalone="no"?>
<!DOCTYPE svg PUBLIC "-//W3C//DTD SVG 1.1//EN"
  "http://www.w3.org/Graphics/SVG/1.1/DTD/svg11.dtd">
<svg xmlns:xlink="http://www.w3.org/1999/xlink" width="460.8pt" height="345.6pt" viewBox="0 0 460.8 345.6" xmlns="http://www.w3.org/2000/svg" version="1.1">
 <metadata>
  <rdf:RDF xmlns:dc="http://purl.org/dc/elements/1.1/" xmlns:cc="http://creativecommons.org/ns#" xmlns:rdf="http://www.w3.org/1999/02/22-rdf-syntax-ns#">
   <cc:Work>
    <dc:type rdf:resource="http://purl.org/dc/dcmitype/StillImage"/>
    <dc:date>2023-07-08T23:28:59.166483</dc:date>
    <dc:format>image/svg+xml</dc:format>
    <dc:creator>
     <cc:Agent>
      <dc:title>Matplotlib v3.7.1, https://matplotlib.org/</dc:title>
     </cc:Agent>
    </dc:creator>
   </cc:Work>
  </rdf:RDF>
 </metadata>
 <defs>
  <style type="text/css">*{stroke-linejoin: round; stroke-linecap: butt}</style>
 </defs>
 <g id="figure_1">
  <g id="patch_1">
   <path d="M 0 345.6 
L 460.8 345.6 
L 460.8 0 
L 0 0 
z
" style="fill: #ffffff"/>
  </g>
  <g id="axes_1">
   <g id="patch_2">
    <path d="M 57.6 307.584 
L 414.72 307.584 
L 414.72 41.472 
L 57.6 41.472 
z
" style="fill: #ffffff"/>
   </g>
   <g id="matplotlib.axis_1">
    <g id="xtick_1">
     <g id="line2d_1">
      <defs>
       <path id="m4354ce1dd6" d="M 0 0 
L 0 3.5 
" style="stroke: #000000; stroke-width: 0.8"/>
      </defs>
      <g>
       <use xlink:href="#m4354ce1dd6" x="176.64" y="307.584" style="stroke: #000000; stroke-width: 0.8"/>
      </g>
     </g>
     <g id="text_1">
      <!-- DMA disabled -->
      <g transform="translate(142.420469 322.182437) scale(0.1 -0.1)">
       <defs>
        <path id="DejaVuSans-44" d="M 1259 4147 
L 1259 519 
L 2022 519 
Q 2988 519 3436 956 
Q 3884 1394 3884 2338 
Q 3884 3275 3436 3711 
Q 2988 4147 2022 4147 
L 1259 4147 
z
M 628 4666 
L 1925 4666 
Q 3281 4666 3915 4102 
Q 4550 3538 4550 2338 
Q 4550 1131 3912 565 
Q 3275 0 1925 0 
L 628 0 
L 628 4666 
z
" transform="scale(0.015625)"/>
        <path id="DejaVuSans-4d" d="M 628 4666 
L 1569 4666 
L 2759 1491 
L 3956 4666 
L 4897 4666 
L 4897 0 
L 4281 0 
L 4281 4097 
L 3078 897 
L 2444 897 
L 1241 4097 
L 1241 0 
L 628 0 
L 628 4666 
z
" transform="scale(0.015625)"/>
        <path id="DejaVuSans-41" d="M 2188 4044 
L 1331 1722 
L 3047 1722 
L 2188 4044 
z
M 1831 4666 
L 2547 4666 
L 4325 0 
L 3669 0 
L 3244 1197 
L 1141 1197 
L 716 0 
L 50 0 
L 1831 4666 
z
" transform="scale(0.015625)"/>
        <path id="DejaVuSans-20" transform="scale(0.015625)"/>
        <path id="DejaVuSans-64" d="M 2906 2969 
L 2906 4863 
L 3481 4863 
L 3481 0 
L 2906 0 
L 2906 525 
Q 2725 213 2448 61 
Q 2172 -91 1784 -91 
Q 1150 -91 751 415 
Q 353 922 353 1747 
Q 353 2572 751 3078 
Q 1150 3584 1784 3584 
Q 2172 3584 2448 3432 
Q 2725 3281 2906 2969 
z
M 947 1747 
Q 947 1113 1208 752 
Q 1469 391 1925 391 
Q 2381 391 2643 752 
Q 2906 1113 2906 1747 
Q 2906 2381 2643 2742 
Q 2381 3103 1925 3103 
Q 1469 3103 1208 2742 
Q 947 2381 947 1747 
z
" transform="scale(0.015625)"/>
        <path id="DejaVuSans-69" d="M 603 3500 
L 1178 3500 
L 1178 0 
L 603 0 
L 603 3500 
z
M 603 4863 
L 1178 4863 
L 1178 4134 
L 603 4134 
L 603 4863 
z
" transform="scale(0.015625)"/>
        <path id="DejaVuSans-73" d="M 2834 3397 
L 2834 2853 
Q 2591 2978 2328 3040 
Q 2066 3103 1784 3103 
Q 1356 3103 1142 2972 
Q 928 2841 928 2578 
Q 928 2378 1081 2264 
Q 1234 2150 1697 2047 
L 1894 2003 
Q 2506 1872 2764 1633 
Q 3022 1394 3022 966 
Q 3022 478 2636 193 
Q 2250 -91 1575 -91 
Q 1294 -91 989 -36 
Q 684 19 347 128 
L 347 722 
Q 666 556 975 473 
Q 1284 391 1588 391 
Q 1994 391 2212 530 
Q 2431 669 2431 922 
Q 2431 1156 2273 1281 
Q 2116 1406 1581 1522 
L 1381 1569 
Q 847 1681 609 1914 
Q 372 2147 372 2553 
Q 372 3047 722 3315 
Q 1072 3584 1716 3584 
Q 2034 3584 2315 3537 
Q 2597 3491 2834 3397 
z
" transform="scale(0.015625)"/>
        <path id="DejaVuSans-61" d="M 2194 1759 
Q 1497 1759 1228 1600 
Q 959 1441 959 1056 
Q 959 750 1161 570 
Q 1363 391 1709 391 
Q 2188 391 2477 730 
Q 2766 1069 2766 1631 
L 2766 1759 
L 2194 1759 
z
M 3341 1997 
L 3341 0 
L 2766 0 
L 2766 531 
Q 2569 213 2275 61 
Q 1981 -91 1556 -91 
Q 1019 -91 701 211 
Q 384 513 384 1019 
Q 384 1609 779 1909 
Q 1175 2209 1959 2209 
L 2766 2209 
L 2766 2266 
Q 2766 2663 2505 2880 
Q 2244 3097 1772 3097 
Q 1472 3097 1187 3025 
Q 903 2953 641 2809 
L 641 3341 
Q 956 3463 1253 3523 
Q 1550 3584 1831 3584 
Q 2591 3584 2966 3190 
Q 3341 2797 3341 1997 
z
" transform="scale(0.015625)"/>
        <path id="DejaVuSans-62" d="M 3116 1747 
Q 3116 2381 2855 2742 
Q 2594 3103 2138 3103 
Q 1681 3103 1420 2742 
Q 1159 2381 1159 1747 
Q 1159 1113 1420 752 
Q 1681 391 2138 391 
Q 2594 391 2855 752 
Q 3116 1113 3116 1747 
z
M 1159 2969 
Q 1341 3281 1617 3432 
Q 1894 3584 2278 3584 
Q 2916 3584 3314 3078 
Q 3713 2572 3713 1747 
Q 3713 922 3314 415 
Q 2916 -91 2278 -91 
Q 1894 -91 1617 61 
Q 1341 213 1159 525 
L 1159 0 
L 581 0 
L 581 4863 
L 1159 4863 
L 1159 2969 
z
" transform="scale(0.015625)"/>
        <path id="DejaVuSans-6c" d="M 603 4863 
L 1178 4863 
L 1178 0 
L 603 0 
L 603 4863 
z
" transform="scale(0.015625)"/>
        <path id="DejaVuSans-65" d="M 3597 1894 
L 3597 1613 
L 953 1613 
Q 991 1019 1311 708 
Q 1631 397 2203 397 
Q 2534 397 2845 478 
Q 3156 559 3463 722 
L 3463 178 
Q 3153 47 2828 -22 
Q 2503 -91 2169 -91 
Q 1331 -91 842 396 
Q 353 884 353 1716 
Q 353 2575 817 3079 
Q 1281 3584 2069 3584 
Q 2775 3584 3186 3129 
Q 3597 2675 3597 1894 
z
M 3022 2063 
Q 3016 2534 2758 2815 
Q 2500 3097 2075 3097 
Q 1594 3097 1305 2825 
Q 1016 2553 972 2059 
L 3022 2063 
z
" transform="scale(0.015625)"/>
       </defs>
       <use xlink:href="#DejaVuSans-44"/>
       <use xlink:href="#DejaVuSans-4d" x="77.001953"/>
       <use xlink:href="#DejaVuSans-41" x="163.28125"/>
       <use xlink:href="#DejaVuSans-20" x="231.689453"/>
       <use xlink:href="#DejaVuSans-64" x="263.476562"/>
       <use xlink:href="#DejaVuSans-69" x="326.953125"/>
       <use xlink:href="#DejaVuSans-73" x="354.736328"/>
       <use xlink:href="#DejaVuSans-61" x="406.835938"/>
       <use xlink:href="#DejaVuSans-62" x="468.115234"/>
       <use xlink:href="#DejaVuSans-6c" x="531.591797"/>
       <use xlink:href="#DejaVuSans-65" x="559.375"/>
       <use xlink:href="#DejaVuSans-64" x="620.898438"/>
      </g>
     </g>
    </g>
    <g id="xtick_2">
     <g id="line2d_2">
      <g>
       <use xlink:href="#m4354ce1dd6" x="295.68" y="307.584" style="stroke: #000000; stroke-width: 0.8"/>
      </g>
     </g>
     <g id="text_2">
      <!-- DMA enabled -->
      <g transform="translate(262.383125 322.182437) scale(0.1 -0.1)">
       <defs>
        <path id="DejaVuSans-6e" d="M 3513 2113 
L 3513 0 
L 2938 0 
L 2938 2094 
Q 2938 2591 2744 2837 
Q 2550 3084 2163 3084 
Q 1697 3084 1428 2787 
Q 1159 2491 1159 1978 
L 1159 0 
L 581 0 
L 581 3500 
L 1159 3500 
L 1159 2956 
Q 1366 3272 1645 3428 
Q 1925 3584 2291 3584 
Q 2894 3584 3203 3211 
Q 3513 2838 3513 2113 
z
" transform="scale(0.015625)"/>
       </defs>
       <use xlink:href="#DejaVuSans-44"/>
       <use xlink:href="#DejaVuSans-4d" x="77.001953"/>
       <use xlink:href="#DejaVuSans-41" x="163.28125"/>
       <use xlink:href="#DejaVuSans-20" x="231.689453"/>
       <use xlink:href="#DejaVuSans-65" x="263.476562"/>
       <use xlink:href="#DejaVuSans-6e" x="325"/>
       <use xlink:href="#DejaVuSans-61" x="388.378906"/>
       <use xlink:href="#DejaVuSans-62" x="449.658203"/>
       <use xlink:href="#DejaVuSans-6c" x="513.134766"/>
       <use xlink:href="#DejaVuSans-65" x="540.917969"/>
       <use xlink:href="#DejaVuSans-64" x="602.441406"/>
      </g>
     </g>
    </g>
   </g>
   <g id="matplotlib.axis_2">
    <g id="ytick_1">
     <g id="line2d_3">
      <defs>
       <path id="m41acd69d77" d="M 0 0 
L -3.5 0 
" style="stroke: #000000; stroke-width: 0.8"/>
      </defs>
      <g>
       <use xlink:href="#m41acd69d77" x="57.6" y="307.584" style="stroke: #000000; stroke-width: 0.8"/>
      </g>
     </g>
     <g id="text_3">
      <!-- 0 -->
      <g transform="translate(44.2375 311.383219) scale(0.1 -0.1)">
       <defs>
        <path id="DejaVuSans-30" d="M 2034 4250 
Q 1547 4250 1301 3770 
Q 1056 3291 1056 2328 
Q 1056 1369 1301 889 
Q 1547 409 2034 409 
Q 2525 409 2770 889 
Q 3016 1369 3016 2328 
Q 3016 3291 2770 3770 
Q 2525 4250 2034 4250 
z
M 2034 4750 
Q 2819 4750 3233 4129 
Q 3647 3509 3647 2328 
Q 3647 1150 3233 529 
Q 2819 -91 2034 -91 
Q 1250 -91 836 529 
Q 422 1150 422 2328 
Q 422 3509 836 4129 
Q 1250 4750 2034 4750 
z
" transform="scale(0.015625)"/>
       </defs>
       <use xlink:href="#DejaVuSans-30"/>
      </g>
     </g>
    </g>
    <g id="ytick_2">
     <g id="line2d_4">
      <g>
       <use xlink:href="#m41acd69d77" x="57.6" y="254.3616" style="stroke: #000000; stroke-width: 0.8"/>
      </g>
     </g>
     <g id="text_4">
      <!-- 10 -->
      <g transform="translate(37.875 258.160819) scale(0.1 -0.1)">
       <defs>
        <path id="DejaVuSans-31" d="M 794 531 
L 1825 531 
L 1825 4091 
L 703 3866 
L 703 4441 
L 1819 4666 
L 2450 4666 
L 2450 531 
L 3481 531 
L 3481 0 
L 794 0 
L 794 531 
z
" transform="scale(0.015625)"/>
       </defs>
       <use xlink:href="#DejaVuSans-31"/>
       <use xlink:href="#DejaVuSans-30" x="63.623047"/>
      </g>
     </g>
    </g>
    <g id="ytick_3">
     <g id="line2d_5">
      <g>
       <use xlink:href="#m41acd69d77" x="57.6" y="201.1392" style="stroke: #000000; stroke-width: 0.8"/>
      </g>
     </g>
     <g id="text_5">
      <!-- 20 -->
      <g transform="translate(37.875 204.938419) scale(0.1 -0.1)">
       <defs>
        <path id="DejaVuSans-32" d="M 1228 531 
L 3431 531 
L 3431 0 
L 469 0 
L 469 531 
Q 828 903 1448 1529 
Q 2069 2156 2228 2338 
Q 2531 2678 2651 2914 
Q 2772 3150 2772 3378 
Q 2772 3750 2511 3984 
Q 2250 4219 1831 4219 
Q 1534 4219 1204 4116 
Q 875 4013 500 3803 
L 500 4441 
Q 881 4594 1212 4672 
Q 1544 4750 1819 4750 
Q 2544 4750 2975 4387 
Q 3406 4025 3406 3419 
Q 3406 3131 3298 2873 
Q 3191 2616 2906 2266 
Q 2828 2175 2409 1742 
Q 1991 1309 1228 531 
z
" transform="scale(0.015625)"/>
       </defs>
       <use xlink:href="#DejaVuSans-32"/>
       <use xlink:href="#DejaVuSans-30" x="63.623047"/>
      </g>
     </g>
    </g>
    <g id="ytick_4">
     <g id="line2d_6">
      <g>
       <use xlink:href="#m41acd69d77" x="57.6" y="147.9168" style="stroke: #000000; stroke-width: 0.8"/>
      </g>
     </g>
     <g id="text_6">
      <!-- 30 -->
      <g transform="translate(37.875 151.716019) scale(0.1 -0.1)">
       <defs>
        <path id="DejaVuSans-33" d="M 2597 2516 
Q 3050 2419 3304 2112 
Q 3559 1806 3559 1356 
Q 3559 666 3084 287 
Q 2609 -91 1734 -91 
Q 1441 -91 1130 -33 
Q 819 25 488 141 
L 488 750 
Q 750 597 1062 519 
Q 1375 441 1716 441 
Q 2309 441 2620 675 
Q 2931 909 2931 1356 
Q 2931 1769 2642 2001 
Q 2353 2234 1838 2234 
L 1294 2234 
L 1294 2753 
L 1863 2753 
Q 2328 2753 2575 2939 
Q 2822 3125 2822 3475 
Q 2822 3834 2567 4026 
Q 2313 4219 1838 4219 
Q 1578 4219 1281 4162 
Q 984 4106 628 3988 
L 628 4550 
Q 988 4650 1302 4700 
Q 1616 4750 1894 4750 
Q 2613 4750 3031 4423 
Q 3450 4097 3450 3541 
Q 3450 3153 3228 2886 
Q 3006 2619 2597 2516 
z
" transform="scale(0.015625)"/>
       </defs>
       <use xlink:href="#DejaVuSans-33"/>
       <use xlink:href="#DejaVuSans-30" x="63.623047"/>
      </g>
     </g>
    </g>
    <g id="ytick_5">
     <g id="line2d_7">
      <g>
       <use xlink:href="#m41acd69d77" x="57.6" y="94.6944" style="stroke: #000000; stroke-width: 0.8"/>
      </g>
     </g>
     <g id="text_7">
      <!-- 40 -->
      <g transform="translate(37.875 98.493619) scale(0.1 -0.1)">
       <defs>
        <path id="DejaVuSans-34" d="M 2419 4116 
L 825 1625 
L 2419 1625 
L 2419 4116 
z
M 2253 4666 
L 3047 4666 
L 3047 1625 
L 3713 1625 
L 3713 1100 
L 3047 1100 
L 3047 0 
L 2419 0 
L 2419 1100 
L 313 1100 
L 313 1709 
L 2253 4666 
z
" transform="scale(0.015625)"/>
       </defs>
       <use xlink:href="#DejaVuSans-34"/>
       <use xlink:href="#DejaVuSans-30" x="63.623047"/>
      </g>
     </g>
    </g>
    <g id="ytick_6">
     <g id="line2d_8">
      <g>
       <use xlink:href="#m41acd69d77" x="57.6" y="41.472" style="stroke: #000000; stroke-width: 0.8"/>
      </g>
     </g>
     <g id="text_8">
      <!-- 50 -->
      <g transform="translate(37.875 45.271219) scale(0.1 -0.1)">
       <defs>
        <path id="DejaVuSans-35" d="M 691 4666 
L 3169 4666 
L 3169 4134 
L 1269 4134 
L 1269 2991 
Q 1406 3038 1543 3061 
Q 1681 3084 1819 3084 
Q 2600 3084 3056 2656 
Q 3513 2228 3513 1497 
Q 3513 744 3044 326 
Q 2575 -91 1722 -91 
Q 1428 -91 1123 -41 
Q 819 9 494 109 
L 494 744 
Q 775 591 1075 516 
Q 1375 441 1709 441 
Q 2250 441 2565 725 
Q 2881 1009 2881 1497 
Q 2881 1984 2565 2268 
Q 2250 2553 1709 2553 
Q 1456 2553 1204 2497 
Q 953 2441 691 2322 
L 691 4666 
z
" transform="scale(0.015625)"/>
       </defs>
       <use xlink:href="#DejaVuSans-35"/>
       <use xlink:href="#DejaVuSans-30" x="63.623047"/>
      </g>
     </g>
    </g>
    <g id="text_9">
     <!-- Cumulated time (ms) -->
     <g transform="translate(31.795312 227.742063) rotate(-90) scale(0.1 -0.1)">
      <defs>
       <path id="DejaVuSans-43" d="M 4122 4306 
L 4122 3641 
Q 3803 3938 3442 4084 
Q 3081 4231 2675 4231 
Q 1875 4231 1450 3742 
Q 1025 3253 1025 2328 
Q 1025 1406 1450 917 
Q 1875 428 2675 428 
Q 3081 428 3442 575 
Q 3803 722 4122 1019 
L 4122 359 
Q 3791 134 3420 21 
Q 3050 -91 2638 -91 
Q 1578 -91 968 557 
Q 359 1206 359 2328 
Q 359 3453 968 4101 
Q 1578 4750 2638 4750 
Q 3056 4750 3426 4639 
Q 3797 4528 4122 4306 
z
" transform="scale(0.015625)"/>
       <path id="DejaVuSans-75" d="M 544 1381 
L 544 3500 
L 1119 3500 
L 1119 1403 
Q 1119 906 1312 657 
Q 1506 409 1894 409 
Q 2359 409 2629 706 
Q 2900 1003 2900 1516 
L 2900 3500 
L 3475 3500 
L 3475 0 
L 2900 0 
L 2900 538 
Q 2691 219 2414 64 
Q 2138 -91 1772 -91 
Q 1169 -91 856 284 
Q 544 659 544 1381 
z
M 1991 3584 
L 1991 3584 
z
" transform="scale(0.015625)"/>
       <path id="DejaVuSans-6d" d="M 3328 2828 
Q 3544 3216 3844 3400 
Q 4144 3584 4550 3584 
Q 5097 3584 5394 3201 
Q 5691 2819 5691 2113 
L 5691 0 
L 5113 0 
L 5113 2094 
Q 5113 2597 4934 2840 
Q 4756 3084 4391 3084 
Q 3944 3084 3684 2787 
Q 3425 2491 3425 1978 
L 3425 0 
L 2847 0 
L 2847 2094 
Q 2847 2600 2669 2842 
Q 2491 3084 2119 3084 
Q 1678 3084 1418 2786 
Q 1159 2488 1159 1978 
L 1159 0 
L 581 0 
L 581 3500 
L 1159 3500 
L 1159 2956 
Q 1356 3278 1631 3431 
Q 1906 3584 2284 3584 
Q 2666 3584 2933 3390 
Q 3200 3197 3328 2828 
z
" transform="scale(0.015625)"/>
       <path id="DejaVuSans-74" d="M 1172 4494 
L 1172 3500 
L 2356 3500 
L 2356 3053 
L 1172 3053 
L 1172 1153 
Q 1172 725 1289 603 
Q 1406 481 1766 481 
L 2356 481 
L 2356 0 
L 1766 0 
Q 1100 0 847 248 
Q 594 497 594 1153 
L 594 3053 
L 172 3053 
L 172 3500 
L 594 3500 
L 594 4494 
L 1172 4494 
z
" transform="scale(0.015625)"/>
       <path id="DejaVuSans-28" d="M 1984 4856 
Q 1566 4138 1362 3434 
Q 1159 2731 1159 2009 
Q 1159 1288 1364 580 
Q 1569 -128 1984 -844 
L 1484 -844 
Q 1016 -109 783 600 
Q 550 1309 550 2009 
Q 550 2706 781 3412 
Q 1013 4119 1484 4856 
L 1984 4856 
z
" transform="scale(0.015625)"/>
       <path id="DejaVuSans-29" d="M 513 4856 
L 1013 4856 
Q 1481 4119 1714 3412 
Q 1947 2706 1947 2009 
Q 1947 1309 1714 600 
Q 1481 -109 1013 -844 
L 513 -844 
Q 928 -128 1133 580 
Q 1338 1288 1338 2009 
Q 1338 2731 1133 3434 
Q 928 4138 513 4856 
z
" transform="scale(0.015625)"/>
      </defs>
      <use xlink:href="#DejaVuSans-43"/>
      <use xlink:href="#DejaVuSans-75" x="69.824219"/>
      <use xlink:href="#DejaVuSans-6d" x="133.203125"/>
      <use xlink:href="#DejaVuSans-75" x="230.615234"/>
      <use xlink:href="#DejaVuSans-6c" x="293.994141"/>
      <use xlink:href="#DejaVuSans-61" x="321.777344"/>
      <use xlink:href="#DejaVuSans-74" x="383.056641"/>
      <use xlink:href="#DejaVuSans-65" x="422.265625"/>
      <use xlink:href="#DejaVuSans-64" x="483.789062"/>
      <use xlink:href="#DejaVuSans-20" x="547.265625"/>
      <use xlink:href="#DejaVuSans-74" x="579.052734"/>
      <use xlink:href="#DejaVuSans-69" x="618.261719"/>
      <use xlink:href="#DejaVuSans-6d" x="646.044922"/>
      <use xlink:href="#DejaVuSans-65" x="743.457031"/>
      <use xlink:href="#DejaVuSans-20" x="804.980469"/>
      <use xlink:href="#DejaVuSans-28" x="836.767578"/>
      <use xlink:href="#DejaVuSans-6d" x="875.78125"/>
      <use xlink:href="#DejaVuSans-73" x="973.193359"/>
      <use xlink:href="#DejaVuSans-29" x="1025.292969"/>
     </g>
    </g>
   </g>
   <g id="patch_3">
    <path d="M 140.928 307.584 
L 212.352 307.584 
L 212.352 228.814848 
L 140.928 228.814848 
z
" clip-path="url(#p9050b59d61)" style="fill: #1f77b4"/>
   </g>
   <g id="patch_4">
    <path d="M 259.968 307.584 
L 331.392 307.584 
L 331.392 226.685952 
L 259.968 226.685952 
z
" clip-path="url(#p9050b59d61)" style="fill: #1f77b4"/>
   </g>
   <g id="patch_5">
    <path d="M 140.928 228.814848 
L 212.352 228.814848 
L 212.352 136.207872 
L 140.928 136.207872 
z
" clip-path="url(#p9050b59d61)" style="fill: #ff7f0e"/>
   </g>
   <g id="patch_6">
    <path d="M 259.968 226.685952 
L 331.392 226.685952 
L 331.392 178.785792 
L 259.968 178.785792 
z
" clip-path="url(#p9050b59d61)" style="fill: #ff7f0e"/>
   </g>
   <g id="patch_7">
    <path d="M 140.928 136.207872 
L 212.352 136.207872 
L 212.352 106.935552 
L 140.928 106.935552 
z
" clip-path="url(#p9050b59d61)" style="fill: #2ca02c"/>
   </g>
   <g id="patch_8">
    <path d="M 259.968 178.785792 
L 331.392 178.785792 
L 331.392 155.90016 
L 259.968 155.90016 
z
" clip-path="url(#p9050b59d61)" style="fill: #2ca02c"/>
   </g>
   <g id="patch_9">
    <path d="M 57.6 307.584 
L 57.6 41.472 
" style="fill: none; stroke: #000000; stroke-width: 0.8; stroke-linejoin: miter; stroke-linecap: square"/>
   </g>
   <g id="patch_10">
    <path d="M 414.72 307.584 
L 414.72 41.472 
" style="fill: none; stroke: #000000; stroke-width: 0.8; stroke-linejoin: miter; stroke-linecap: square"/>
   </g>
   <g id="patch_11">
    <path d="M 57.6 307.584 
L 414.72 307.584 
" style="fill: none; stroke: #000000; stroke-width: 0.8; stroke-linejoin: miter; stroke-linecap: square"/>
   </g>
   <g id="patch_12">
    <path d="M 57.6 41.472 
L 414.72 41.472 
" style="fill: none; stroke: #000000; stroke-width: 0.8; stroke-linejoin: miter; stroke-linecap: square"/>
   </g>
   <g id="text_10">
    <!-- 14.8 ms -->
    <g style="fill: #ffffff" transform="translate(157.395469 264.975872) scale(0.1 -0.1)">
     <defs>
      <path id="Consolas-Bold-31" d="M 475 0 
L 475 678 
L 1516 678 
L 1516 3303 
L 609 2803 
L 359 3425 
L 1656 4109 
L 2297 4109 
L 2297 678 
L 3194 678 
L 3194 0 
L 475 0 
z
" transform="scale(0.015625)"/>
      <path id="Consolas-Bold-34" d="M 2766 831 
L 2766 0 
L 2022 0 
L 2022 831 
L 122 831 
L 122 1484 
L 1716 4084 
L 2766 4084 
L 2766 1503 
L 3384 1503 
L 3384 831 
L 2766 831 
z
M 2031 3347 
L 869 1503 
L 2031 1503 
L 2031 3347 
z
" transform="scale(0.015625)"/>
      <path id="Consolas-Bold-2e" d="M 1741 1153 
Q 1872 1153 1984 1104 
Q 2097 1056 2180 973 
Q 2263 891 2309 778 
Q 2356 666 2356 538 
Q 2356 413 2309 302 
Q 2263 191 2180 108 
Q 2097 25 1984 -23 
Q 1872 -72 1741 -72 
Q 1616 -72 1506 -23 
Q 1397 25 1315 108 
Q 1234 191 1187 302 
Q 1141 413 1141 538 
Q 1141 666 1187 778 
Q 1234 891 1315 973 
Q 1397 1056 1506 1104 
Q 1616 1153 1741 1153 
z
" transform="scale(0.015625)"/>
      <path id="Consolas-Bold-38" d="M 2438 2163 
Q 2591 2078 2730 1976 
Q 2869 1875 2973 1742 
Q 3078 1609 3139 1442 
Q 3200 1275 3200 1063 
Q 3200 784 3087 571 
Q 2975 359 2776 215 
Q 2578 72 2311 0 
Q 2044 -72 1734 -72 
Q 1391 -72 1127 1 
Q 863 75 683 209 
Q 503 344 411 534 
Q 319 725 319 959 
Q 319 1169 380 1333 
Q 441 1497 547 1631 
Q 653 1766 792 1872 
Q 931 1978 1088 2069 
Q 947 2150 823 2247 
Q 700 2344 606 2466 
Q 513 2588 458 2738 
Q 403 2888 403 3078 
Q 403 3300 489 3495 
Q 575 3691 745 3837 
Q 916 3984 1173 4068 
Q 1431 4153 1778 4153 
Q 2097 4153 2347 4086 
Q 2597 4019 2767 3894 
Q 2938 3769 3027 3595 
Q 3116 3422 3116 3213 
Q 3116 3019 3062 2862 
Q 3009 2706 2918 2579 
Q 2828 2453 2703 2351 
Q 2578 2250 2438 2163 
z
M 1838 2456 
Q 1950 2519 2048 2589 
Q 2147 2659 2219 2743 
Q 2291 2828 2334 2928 
Q 2378 3028 2378 3150 
Q 2378 3353 2218 3459 
Q 2059 3566 1759 3566 
Q 1466 3566 1306 3456 
Q 1147 3347 1147 3128 
Q 1147 3009 1200 2915 
Q 1253 2822 1347 2742 
Q 1441 2663 1567 2594 
Q 1694 2525 1838 2456 
z
M 1678 1766 
Q 1556 1700 1448 1625 
Q 1341 1550 1261 1459 
Q 1181 1369 1134 1261 
Q 1088 1153 1088 1019 
Q 1088 781 1272 656 
Q 1456 531 1759 531 
Q 1897 531 2019 559 
Q 2141 588 2233 647 
Q 2325 706 2378 798 
Q 2431 891 2431 1019 
Q 2431 1150 2372 1254 
Q 2313 1359 2209 1446 
Q 2106 1534 1968 1612 
Q 1831 1691 1678 1766 
z
" transform="scale(0.015625)"/>
      <path id="Consolas-Bold-20" transform="scale(0.015625)"/>
      <path id="Consolas-Bold-6d" d="M 2675 0 
L 2675 2163 
Q 2675 2281 2669 2370 
Q 2663 2459 2644 2518 
Q 2625 2578 2589 2608 
Q 2553 2638 2491 2638 
Q 2394 2638 2300 2506 
Q 2206 2375 2088 2059 
L 2088 0 
L 1434 0 
L 1434 2163 
Q 1434 2281 1428 2370 
Q 1422 2459 1403 2518 
Q 1384 2578 1346 2608 
Q 1309 2638 1247 2638 
Q 1166 2638 1066 2506 
Q 966 2375 844 2059 
L 844 0 
L 184 0 
L 184 3175 
L 750 3175 
L 763 2713 
Q 831 2853 900 2953 
Q 969 3053 1047 3117 
Q 1125 3181 1214 3209 
Q 1303 3238 1416 3238 
Q 1681 3238 1820 3098 
Q 1959 2959 1978 2713 
Q 2053 2853 2126 2953 
Q 2200 3053 2279 3117 
Q 2359 3181 2451 3209 
Q 2544 3238 2656 3238 
Q 3003 3238 3168 2995 
Q 3334 2753 3334 2278 
L 3334 0 
L 2675 0 
z
" transform="scale(0.015625)"/>
      <path id="Consolas-Bold-73" d="M 3053 934 
Q 3053 663 2933 470 
Q 2813 278 2614 158 
Q 2416 38 2164 -17 
Q 1913 -72 1650 -72 
Q 1300 -72 1019 -39 
Q 738 -6 488 56 
L 488 744 
Q 781 622 1073 567 
Q 1366 513 1625 513 
Q 1925 513 2073 608 
Q 2222 703 2222 856 
Q 2222 928 2190 987 
Q 2159 1047 2073 1101 
Q 1988 1156 1831 1214 
Q 1675 1272 1422 1344 
Q 1188 1409 1011 1492 
Q 834 1575 718 1687 
Q 603 1800 545 1948 
Q 488 2097 488 2297 
Q 488 2491 575 2662 
Q 663 2834 836 2964 
Q 1009 3094 1268 3169 
Q 1528 3244 1875 3244 
Q 2175 3244 2406 3212 
Q 2638 3181 2816 3144 
L 2816 2522 
Q 2544 2609 2305 2645 
Q 2066 2681 1831 2681 
Q 1597 2681 1455 2597 
Q 1313 2513 1313 2363 
Q 1313 2291 1341 2234 
Q 1369 2178 1451 2125 
Q 1534 2072 1682 2014 
Q 1831 1956 2075 1888 
Q 2350 1809 2537 1720 
Q 2725 1631 2839 1518 
Q 2953 1406 3003 1262 
Q 3053 1119 3053 934 
z
" transform="scale(0.015625)"/>
     </defs>
     <use xlink:href="#Consolas-Bold-31"/>
     <use xlink:href="#Consolas-Bold-34" x="54.980469"/>
     <use xlink:href="#Consolas-Bold-2e" x="109.960938"/>
     <use xlink:href="#Consolas-Bold-38" x="164.941406"/>
     <use xlink:href="#Consolas-Bold-20" x="219.921875"/>
     <use xlink:href="#Consolas-Bold-6d" x="274.902344"/>
     <use xlink:href="#Consolas-Bold-73" x="329.882812"/>
    </g>
    <!-- (39.3%) -->
    <g style="fill: #ffffff" transform="translate(157.395469 275.65056) scale(0.1 -0.1)">
     <defs>
      <path id="Consolas-Bold-28" d="M 2369 -1313 
Q 1609 -669 1229 68 
Q 850 806 850 1656 
Q 850 2131 962 2554 
Q 1075 2978 1279 3350 
Q 1484 3722 1767 4048 
Q 2050 4375 2388 4659 
L 2822 4225 
Q 2213 3678 1906 3043 
Q 1600 2409 1600 1709 
Q 1600 1000 1906 345 
Q 2213 -309 2822 -850 
L 2369 -1313 
z
" transform="scale(0.015625)"/>
      <path id="Consolas-Bold-33" d="M 3188 1247 
Q 3188 944 3075 701 
Q 2963 459 2730 289 
Q 2497 119 2144 28 
Q 1791 -63 1313 -63 
Q 1206 -63 1089 -58 
Q 972 -53 856 -45 
Q 741 -38 631 -27 
Q 522 -16 434 0 
L 434 663 
Q 631 625 876 601 
Q 1122 578 1388 578 
Q 1647 578 1834 622 
Q 2022 666 2144 748 
Q 2266 831 2323 953 
Q 2381 1075 2381 1228 
Q 2381 1363 2322 1472 
Q 2263 1581 2141 1657 
Q 2019 1734 1830 1776 
Q 1641 1819 1381 1819 
L 928 1819 
L 928 2400 
L 1344 2400 
Q 1588 2400 1748 2448 
Q 1909 2497 2004 2578 
Q 2100 2659 2140 2770 
Q 2181 2881 2181 3003 
Q 2181 3253 2018 3383 
Q 1856 3513 1516 3513 
Q 1272 3513 1034 3466 
Q 797 3419 544 3341 
L 544 3981 
Q 684 4028 812 4059 
Q 941 4091 1069 4112 
Q 1197 4134 1328 4143 
Q 1459 4153 1600 4153 
Q 1938 4153 2192 4081 
Q 2447 4009 2620 3876 
Q 2794 3744 2881 3553 
Q 2969 3363 2969 3128 
Q 2969 2756 2798 2526 
Q 2628 2297 2322 2175 
Q 2519 2144 2678 2067 
Q 2838 1991 2952 1870 
Q 3066 1750 3127 1594 
Q 3188 1438 3188 1247 
z
" transform="scale(0.015625)"/>
      <path id="Consolas-Bold-39" d="M 3194 2284 
Q 3194 1803 3112 1445 
Q 3031 1088 2882 834 
Q 2734 581 2528 418 
Q 2322 256 2070 162 
Q 1819 69 1533 34 
Q 1247 0 941 0 
L 469 0 
L 469 653 
L 1025 653 
Q 1391 653 1636 717 
Q 1881 781 2032 904 
Q 2184 1028 2257 1212 
Q 2331 1397 2356 1638 
L 2363 1716 
Q 2197 1638 1984 1588 
Q 1772 1538 1556 1538 
Q 1259 1538 1015 1606 
Q 772 1675 595 1825 
Q 419 1975 322 2214 
Q 225 2453 225 2791 
Q 225 3097 336 3348 
Q 447 3600 645 3778 
Q 844 3956 1117 4054 
Q 1391 4153 1716 4153 
Q 2034 4153 2304 4062 
Q 2575 3972 2773 3755 
Q 2972 3538 3083 3178 
Q 3194 2819 3194 2284 
z
M 1678 3513 
Q 1528 3513 1406 3463 
Q 1284 3413 1198 3322 
Q 1113 3231 1066 3104 
Q 1019 2978 1019 2822 
Q 1019 2491 1194 2330 
Q 1369 2169 1678 2169 
Q 1763 2169 1858 2184 
Q 1953 2200 2048 2228 
Q 2144 2256 2230 2292 
Q 2316 2328 2381 2369 
Q 2381 2647 2345 2859 
Q 2309 3072 2226 3217 
Q 2144 3363 2009 3438 
Q 1875 3513 1678 3513 
z
" transform="scale(0.015625)"/>
      <path id="Consolas-Bold-25" d="M 622 0 
L 0 0 
L 2900 4416 
L 3519 4416 
L 622 0 
z
M 1806 3531 
Q 1806 3322 1747 3145 
Q 1688 2969 1577 2839 
Q 1466 2709 1305 2637 
Q 1144 2566 941 2566 
Q 544 2566 323 2803 
Q 103 3041 103 3506 
Q 103 3716 161 3892 
Q 219 4069 330 4198 
Q 441 4328 602 4401 
Q 763 4475 966 4475 
Q 1363 4475 1584 4237 
Q 1806 4000 1806 3531 
z
M 1250 3519 
Q 1250 3766 1175 3883 
Q 1100 4000 953 4000 
Q 659 4000 659 3519 
Q 659 3275 734 3158 
Q 809 3041 953 3041 
Q 1250 3041 1250 3519 
z
M 3419 909 
Q 3419 700 3359 523 
Q 3300 347 3189 217 
Q 3078 88 2917 16 
Q 2756 -56 2553 -56 
Q 2156 -56 1936 180 
Q 1716 416 1716 884 
Q 1716 1097 1773 1273 
Q 1831 1450 1942 1578 
Q 2053 1706 2214 1779 
Q 2375 1853 2578 1853 
Q 2975 1853 3197 1615 
Q 3419 1378 3419 909 
z
M 2863 897 
Q 2863 1144 2788 1261 
Q 2713 1378 2566 1378 
Q 2272 1378 2272 897 
Q 2272 650 2347 534 
Q 2422 419 2566 419 
Q 2863 419 2863 897 
z
" transform="scale(0.015625)"/>
      <path id="Consolas-Bold-29" d="M 1166 4659 
Q 1931 4022 2306 3283 
Q 2681 2544 2681 1691 
Q 2681 1216 2568 794 
Q 2456 372 2254 -3 
Q 2053 -378 1772 -704 
Q 1491 -1031 1153 -1313 
L 716 -878 
Q 1328 -331 1634 306 
Q 1941 944 1941 1644 
Q 1941 2350 1634 3006 
Q 1328 3663 716 4206 
L 1166 4659 
z
" transform="scale(0.015625)"/>
     </defs>
     <use xlink:href="#Consolas-Bold-28"/>
     <use xlink:href="#Consolas-Bold-33" x="54.980469"/>
     <use xlink:href="#Consolas-Bold-39" x="109.960938"/>
     <use xlink:href="#Consolas-Bold-2e" x="164.941406"/>
     <use xlink:href="#Consolas-Bold-33" x="219.921875"/>
     <use xlink:href="#Consolas-Bold-25" x="274.902344"/>
     <use xlink:href="#Consolas-Bold-29" x="329.882812"/>
    </g>
   </g>
   <g id="text_11">
    <!-- 15.2 ms -->
    <g style="fill: #ffffff" transform="translate(276.435469 264.975872) scale(0.1 -0.1)">
     <defs>
      <path id="Consolas-Bold-35" d="M 3144 1306 
Q 3144 978 3006 723 
Q 2869 469 2625 294 
Q 2381 119 2050 28 
Q 1719 -63 1331 -63 
Q 1234 -63 1125 -56 
Q 1016 -50 903 -40 
Q 791 -31 684 -17 
Q 578 -3 488 13 
L 488 678 
Q 666 634 897 607 
Q 1128 581 1369 581 
Q 1838 581 2083 761 
Q 2328 941 2328 1259 
Q 2328 1591 2100 1752 
Q 1872 1913 1363 1913 
L 563 1913 
L 563 4084 
L 2919 4084 
L 2919 3366 
L 1275 3366 
L 1275 2534 
L 1569 2534 
Q 1881 2534 2165 2478 
Q 2450 2422 2667 2283 
Q 2884 2144 3014 1906 
Q 3144 1669 3144 1306 
z
" transform="scale(0.015625)"/>
      <path id="Consolas-Bold-32" d="M 403 0 
L 403 563 
L 1369 1528 
Q 1641 1800 1805 1997 
Q 1969 2194 2058 2348 
Q 2147 2503 2175 2634 
Q 2203 2766 2203 2906 
Q 2203 3022 2165 3126 
Q 2128 3231 2056 3307 
Q 1984 3384 1875 3429 
Q 1766 3475 1625 3475 
Q 1384 3475 1178 3370 
Q 972 3266 788 3091 
L 384 3609 
Q 650 3856 983 4004 
Q 1316 4153 1703 4153 
Q 2003 4153 2247 4076 
Q 2491 4000 2664 3850 
Q 2838 3700 2933 3475 
Q 3028 3250 3028 2956 
Q 3028 2713 2962 2502 
Q 2897 2291 2772 2091 
Q 2647 1891 2464 1691 
Q 2281 1491 2047 1269 
L 1453 703 
L 3175 703 
L 3175 0 
L 403 0 
z
" transform="scale(0.015625)"/>
     </defs>
     <use xlink:href="#Consolas-Bold-31"/>
     <use xlink:href="#Consolas-Bold-35" x="54.980469"/>
     <use xlink:href="#Consolas-Bold-2e" x="109.960938"/>
     <use xlink:href="#Consolas-Bold-32" x="164.941406"/>
     <use xlink:href="#Consolas-Bold-20" x="219.921875"/>
     <use xlink:href="#Consolas-Bold-6d" x="274.902344"/>
     <use xlink:href="#Consolas-Bold-73" x="329.882812"/>
    </g>
    <!-- (53.3%) -->
    <g style="fill: #ffffff" transform="translate(276.435469 275.65056) scale(0.1 -0.1)">
     <use xlink:href="#Consolas-Bold-28"/>
     <use xlink:href="#Consolas-Bold-35" x="54.980469"/>
     <use xlink:href="#Consolas-Bold-33" x="109.960938"/>
     <use xlink:href="#Consolas-Bold-2e" x="164.941406"/>
     <use xlink:href="#Consolas-Bold-33" x="219.921875"/>
     <use xlink:href="#Consolas-Bold-25" x="274.902344"/>
     <use xlink:href="#Consolas-Bold-29" x="329.882812"/>
    </g>
   </g>
   <g id="text_12">
    <!-- 17.4 ms -->
    <g style="fill: #ffffff" transform="translate(157.395469 180.88448) scale(0.1 -0.1)">
     <defs>
      <path id="Consolas-Bold-37" d="M 1528 0 
L 666 0 
L 2291 3347 
L 331 3347 
L 331 4084 
L 3169 4084 
L 3169 3419 
L 1528 0 
z
" transform="scale(0.015625)"/>
     </defs>
     <use xlink:href="#Consolas-Bold-31"/>
     <use xlink:href="#Consolas-Bold-37" x="54.980469"/>
     <use xlink:href="#Consolas-Bold-2e" x="109.960938"/>
     <use xlink:href="#Consolas-Bold-34" x="164.941406"/>
     <use xlink:href="#Consolas-Bold-20" x="219.921875"/>
     <use xlink:href="#Consolas-Bold-6d" x="274.902344"/>
     <use xlink:href="#Consolas-Bold-73" x="329.882812"/>
    </g>
    <!-- (46.2%) -->
    <g style="fill: #ffffff" transform="translate(157.395469 191.559168) scale(0.1 -0.1)">
     <defs>
      <path id="Consolas-Bold-36" d="M 3278 1294 
Q 3278 984 3165 732 
Q 3053 481 2854 301 
Q 2656 122 2381 25 
Q 2106 -72 1778 -72 
Q 1063 -72 684 378 
Q 306 828 306 1753 
Q 306 2091 347 2395 
Q 388 2700 483 2958 
Q 578 3216 739 3425 
Q 900 3634 1140 3779 
Q 1381 3925 1709 4004 
Q 2038 4084 2472 4084 
L 2938 4084 
L 2938 3438 
L 2394 3438 
Q 2056 3438 1828 3369 
Q 1600 3300 1456 3172 
Q 1313 3044 1241 2859 
Q 1169 2675 1147 2444 
L 1141 2369 
Q 1303 2447 1511 2497 
Q 1719 2547 1947 2547 
Q 2278 2547 2528 2461 
Q 2778 2375 2945 2212 
Q 3113 2050 3195 1819 
Q 3278 1588 3278 1294 
z
M 2484 1259 
Q 2484 1403 2446 1523 
Q 2409 1644 2329 1730 
Q 2250 1816 2126 1864 
Q 2003 1913 1831 1913 
Q 1731 1913 1632 1895 
Q 1534 1878 1442 1850 
Q 1350 1822 1267 1787 
Q 1184 1753 1119 1716 
Q 1119 1400 1162 1183 
Q 1206 966 1295 828 
Q 1384 691 1517 630 
Q 1650 569 1825 569 
Q 1975 569 2097 619 
Q 2219 669 2305 761 
Q 2391 853 2437 979 
Q 2484 1106 2484 1259 
z
" transform="scale(0.015625)"/>
     </defs>
     <use xlink:href="#Consolas-Bold-28"/>
     <use xlink:href="#Consolas-Bold-34" x="54.980469"/>
     <use xlink:href="#Consolas-Bold-36" x="109.960938"/>
     <use xlink:href="#Consolas-Bold-2e" x="164.941406"/>
     <use xlink:href="#Consolas-Bold-32" x="219.921875"/>
     <use xlink:href="#Consolas-Bold-25" x="274.902344"/>
     <use xlink:href="#Consolas-Bold-29" x="329.882812"/>
    </g>
   </g>
   <g id="text_13">
    <!-- 9 ms -->
    <g style="fill: #ffffff" transform="translate(284.683125 200.044544) scale(0.1 -0.1)">
     <use xlink:href="#Consolas-Bold-39"/>
     <use xlink:href="#Consolas-Bold-20" x="54.980469"/>
     <use xlink:href="#Consolas-Bold-6d" x="109.960938"/>
     <use xlink:href="#Consolas-Bold-73" x="164.941406"/>
    </g>
    <!-- (31.6%) -->
    <g style="fill: #ffffff" transform="translate(276.435469 210.719232) scale(0.1 -0.1)">
     <use xlink:href="#Consolas-Bold-28"/>
     <use xlink:href="#Consolas-Bold-33" x="54.980469"/>
     <use xlink:href="#Consolas-Bold-31" x="109.960938"/>
     <use xlink:href="#Consolas-Bold-2e" x="164.941406"/>
     <use xlink:href="#Consolas-Bold-36" x="219.921875"/>
     <use xlink:href="#Consolas-Bold-25" x="274.902344"/>
     <use xlink:href="#Consolas-Bold-29" x="329.882812"/>
    </g>
   </g>
   <g id="text_14">
    <!-- 5.5 ms -->
    <g style="fill: #ffffff" transform="translate(160.144687 120.210944) scale(0.1 -0.1)">
     <use xlink:href="#Consolas-Bold-35"/>
     <use xlink:href="#Consolas-Bold-2e" x="54.980469"/>
     <use xlink:href="#Consolas-Bold-35" x="109.960938"/>
     <use xlink:href="#Consolas-Bold-20" x="164.941406"/>
     <use xlink:href="#Consolas-Bold-6d" x="219.921875"/>
     <use xlink:href="#Consolas-Bold-73" x="274.902344"/>
    </g>
    <!-- (14.5%) -->
    <g style="fill: #ffffff" transform="translate(157.395469 130.885632) scale(0.1 -0.1)">
     <use xlink:href="#Consolas-Bold-28"/>
     <use xlink:href="#Consolas-Bold-31" x="54.980469"/>
     <use xlink:href="#Consolas-Bold-34" x="109.960938"/>
     <use xlink:href="#Consolas-Bold-2e" x="164.941406"/>
     <use xlink:href="#Consolas-Bold-35" x="219.921875"/>
     <use xlink:href="#Consolas-Bold-25" x="274.902344"/>
     <use xlink:href="#Consolas-Bold-29" x="329.882812"/>
    </g>
   </g>
   <g id="text_15">
    <!-- 4.3 ms -->
    <g style="fill: #ffffff" transform="translate(279.184687 165.449984) scale(0.1 -0.1)">
     <use xlink:href="#Consolas-Bold-34"/>
     <use xlink:href="#Consolas-Bold-2e" x="54.980469"/>
     <use xlink:href="#Consolas-Bold-33" x="109.960938"/>
     <use xlink:href="#Consolas-Bold-20" x="164.941406"/>
     <use xlink:href="#Consolas-Bold-6d" x="219.921875"/>
     <use xlink:href="#Consolas-Bold-73" x="274.902344"/>
    </g>
    <!-- (15.1%) -->
    <g style="fill: #ffffff" transform="translate(276.435469 176.124672) scale(0.1 -0.1)">
     <use xlink:href="#Consolas-Bold-28"/>
     <use xlink:href="#Consolas-Bold-31" x="54.980469"/>
     <use xlink:href="#Consolas-Bold-35" x="109.960938"/>
     <use xlink:href="#Consolas-Bold-2e" x="164.941406"/>
     <use xlink:href="#Consolas-Bold-31" x="219.921875"/>
     <use xlink:href="#Consolas-Bold-25" x="274.902344"/>
     <use xlink:href="#Consolas-Bold-29" x="329.882812"/>
    </g>
   </g>
   <g id="text_16">
    <!-- 26.5 FPS -->
    <g transform="translate(154.64625 104.274432) scale(0.1 -0.1)">
     <defs>
      <path id="Consolas-32" d="M 3150 0 
L 459 0 
L 459 488 
L 1516 1538 
Q 1775 1794 1937 1981 
Q 2100 2169 2190 2323 
Q 2281 2478 2312 2615 
Q 2344 2753 2344 2913 
Q 2344 3063 2303 3198 
Q 2263 3334 2178 3437 
Q 2094 3541 1959 3600 
Q 1825 3659 1638 3659 
Q 1378 3659 1165 3543 
Q 953 3428 775 3244 
L 475 3603 
Q 706 3847 1007 3994 
Q 1309 4141 1709 4141 
Q 1981 4141 2204 4059 
Q 2428 3978 2590 3825 
Q 2753 3672 2842 3450 
Q 2931 3228 2931 2950 
Q 2931 2716 2868 2516 
Q 2806 2316 2679 2117 
Q 2553 1919 2361 1706 
Q 2169 1494 1906 1241 
L 1166 519 
L 3150 519 
L 3150 0 
z
" transform="scale(0.015625)"/>
      <path id="Consolas-36" d="M 3200 1294 
Q 3200 1013 3098 766 
Q 2997 519 2809 336 
Q 2622 153 2358 48 
Q 2094 -56 1772 -56 
Q 1434 -56 1175 51 
Q 916 159 741 382 
Q 566 606 475 947 
Q 384 1288 384 1753 
Q 384 2066 425 2359 
Q 466 2653 559 2912 
Q 653 3172 809 3387 
Q 966 3603 1198 3758 
Q 1431 3913 1747 3998 
Q 2063 4084 2478 4084 
L 2881 4084 
L 2881 3609 
L 2444 3609 
Q 2078 3609 1809 3521 
Q 1541 3434 1359 3275 
Q 1178 3116 1081 2891 
Q 984 2666 959 2388 
L 947 2259 
Q 1144 2375 1401 2445 
Q 1659 2516 1959 2516 
Q 2269 2516 2501 2425 
Q 2734 2334 2889 2173 
Q 3044 2013 3122 1788 
Q 3200 1563 3200 1294 
z
M 2631 1259 
Q 2631 1447 2586 1598 
Q 2541 1750 2444 1854 
Q 2347 1959 2198 2017 
Q 2050 2075 1844 2075 
Q 1725 2075 1603 2053 
Q 1481 2031 1364 1992 
Q 1247 1953 1140 1903 
Q 1034 1853 947 1797 
Q 947 1394 1003 1123 
Q 1059 853 1170 690 
Q 1281 528 1443 459 
Q 1606 391 1819 391 
Q 1997 391 2145 448 
Q 2294 506 2401 618 
Q 2509 731 2570 892 
Q 2631 1053 2631 1259 
z
" transform="scale(0.015625)"/>
      <path id="Consolas-2e" d="M 1734 984 
Q 1841 984 1936 943 
Q 2031 903 2101 831 
Q 2172 759 2212 664 
Q 2253 569 2253 459 
Q 2253 353 2212 259 
Q 2172 166 2101 95 
Q 2031 25 1936 -15 
Q 1841 -56 1734 -56 
Q 1625 -56 1531 -15 
Q 1438 25 1367 95 
Q 1297 166 1256 259 
Q 1216 353 1216 459 
Q 1216 569 1256 664 
Q 1297 759 1367 831 
Q 1438 903 1531 943 
Q 1625 984 1734 984 
z
" transform="scale(0.015625)"/>
      <path id="Consolas-35" d="M 3047 1306 
Q 3047 1003 2915 753 
Q 2784 503 2554 323 
Q 2325 144 2012 44 
Q 1700 -56 1338 -56 
Q 1247 -56 1142 -51 
Q 1038 -47 934 -39 
Q 831 -31 732 -22 
Q 634 -13 556 0 
L 556 494 
Q 725 453 942 434 
Q 1159 416 1381 416 
Q 1631 416 1831 475 
Q 2031 534 2172 645 
Q 2313 756 2388 914 
Q 2463 1072 2463 1269 
Q 2463 1650 2189 1823 
Q 1916 1997 1403 1997 
L 628 1997 
L 628 4084 
L 2828 4084 
L 2828 3609 
L 1141 3609 
L 1141 2463 
L 1497 2463 
Q 1791 2463 2069 2409 
Q 2347 2356 2564 2223 
Q 2781 2091 2914 1867 
Q 3047 1644 3047 1306 
z
" transform="scale(0.015625)"/>
      <path id="Consolas-20" transform="scale(0.015625)"/>
      <path id="Consolas-46" d="M 2944 3609 
L 1209 3609 
L 1209 2284 
L 2853 2284 
L 2853 1819 
L 1209 1819 
L 1209 0 
L 641 0 
L 641 4084 
L 2944 4084 
L 2944 3609 
z
" transform="scale(0.015625)"/>
      <path id="Consolas-50" d="M 3175 2834 
Q 3175 2584 3081 2339 
Q 2988 2094 2791 1900 
Q 2594 1706 2287 1586 
Q 1981 1466 1556 1466 
L 1050 1466 
L 1050 0 
L 494 0 
L 494 4084 
L 1644 4084 
Q 1947 4084 2225 4017 
Q 2503 3950 2714 3800 
Q 2925 3650 3050 3412 
Q 3175 3175 3175 2834 
z
M 2597 2809 
Q 2597 3203 2339 3412 
Q 2081 3622 1619 3622 
L 1050 3622 
L 1050 1941 
L 1569 1941 
Q 2063 1941 2330 2156 
Q 2597 2372 2597 2809 
z
" transform="scale(0.015625)"/>
      <path id="Consolas-53" d="M 3116 1106 
Q 3116 816 2997 597 
Q 2878 378 2665 233 
Q 2453 88 2154 16 
Q 1856 -56 1497 -56 
Q 1334 -56 1173 -43 
Q 1013 -31 864 -12 
Q 716 6 584 31 
Q 453 56 347 84 
L 347 622 
Q 581 534 873 484 
Q 1166 434 1538 434 
Q 1806 434 1995 476 
Q 2184 519 2304 601 
Q 2425 684 2479 803 
Q 2534 922 2534 1075 
Q 2534 1241 2442 1358 
Q 2350 1475 2200 1567 
Q 2050 1659 1858 1736 
Q 1666 1813 1466 1894 
Q 1266 1975 1073 2070 
Q 881 2166 731 2295 
Q 581 2425 489 2600 
Q 397 2775 397 3016 
Q 397 3225 484 3428 
Q 572 3631 756 3789 
Q 941 3947 1230 4044 
Q 1519 4141 1919 4141 
Q 2022 4141 2142 4131 
Q 2263 4122 2386 4105 
Q 2509 4088 2629 4066 
Q 2750 4044 2853 4019 
L 2853 3519 
Q 2613 3588 2372 3623 
Q 2131 3659 1906 3659 
Q 1428 3659 1203 3500 
Q 978 3341 978 3072 
Q 978 2906 1070 2787 
Q 1163 2669 1313 2575 
Q 1463 2481 1655 2404 
Q 1847 2328 2047 2247 
Q 2247 2166 2439 2069 
Q 2631 1972 2781 1839 
Q 2931 1706 3023 1528 
Q 3116 1350 3116 1106 
z
" transform="scale(0.015625)"/>
     </defs>
     <use xlink:href="#Consolas-32"/>
     <use xlink:href="#Consolas-36" x="54.980469"/>
     <use xlink:href="#Consolas-2e" x="109.960938"/>
     <use xlink:href="#Consolas-35" x="164.941406"/>
     <use xlink:href="#Consolas-20" x="219.921875"/>
     <use xlink:href="#Consolas-46" x="274.902344"/>
     <use xlink:href="#Consolas-50" x="329.882812"/>
     <use xlink:href="#Consolas-53" x="384.863281"/>
    </g>
   </g>
   <g id="text_17">
    <!-- 35 FPS -->
    <g transform="translate(279.184687 153.23904) scale(0.1 -0.1)">
     <defs>
      <path id="Consolas-33" d="M 3072 1241 
Q 3072 972 2962 736 
Q 2853 500 2634 323 
Q 2416 147 2084 45 
Q 1753 -56 1313 -56 
Q 1069 -56 875 -40 
Q 681 -25 513 0 
L 513 488 
Q 706 453 922 434 
Q 1138 416 1363 416 
Q 1669 416 1886 470 
Q 2103 525 2240 628 
Q 2378 731 2440 878 
Q 2503 1025 2503 1209 
Q 2503 1378 2428 1503 
Q 2353 1628 2217 1712 
Q 2081 1797 1892 1839 
Q 1703 1881 1478 1881 
L 1013 1881 
L 1013 2328 
L 1484 2328 
Q 1669 2328 1820 2376 
Q 1972 2425 2080 2515 
Q 2188 2606 2245 2739 
Q 2303 2872 2303 3041 
Q 2303 3369 2103 3519 
Q 1903 3669 1516 3669 
Q 1309 3669 1090 3628 
Q 872 3588 622 3506 
L 622 3981 
Q 728 4019 848 4048 
Q 969 4078 1089 4098 
Q 1209 4119 1328 4130 
Q 1447 4141 1556 4141 
Q 1881 4141 2128 4070 
Q 2375 4000 2540 3869 
Q 2706 3738 2790 3550 
Q 2875 3363 2875 3128 
Q 2875 2778 2695 2540 
Q 2516 2303 2203 2163 
Q 2363 2138 2517 2063 
Q 2672 1988 2795 1870 
Q 2919 1753 2995 1593 
Q 3072 1434 3072 1241 
z
" transform="scale(0.015625)"/>
     </defs>
     <use xlink:href="#Consolas-33"/>
     <use xlink:href="#Consolas-35" x="54.980469"/>
     <use xlink:href="#Consolas-20" x="109.960938"/>
     <use xlink:href="#Consolas-46" x="164.941406"/>
     <use xlink:href="#Consolas-50" x="219.921875"/>
     <use xlink:href="#Consolas-53" x="274.902344"/>
    </g>
   </g>
   <g id="text_18">
    <!-- Impact of DMA on Performances -->
    <g transform="translate(139.478437 35.472) scale(0.12 -0.12)">
     <defs>
      <path id="DejaVuSans-49" d="M 628 4666 
L 1259 4666 
L 1259 0 
L 628 0 
L 628 4666 
z
" transform="scale(0.015625)"/>
      <path id="DejaVuSans-70" d="M 1159 525 
L 1159 -1331 
L 581 -1331 
L 581 3500 
L 1159 3500 
L 1159 2969 
Q 1341 3281 1617 3432 
Q 1894 3584 2278 3584 
Q 2916 3584 3314 3078 
Q 3713 2572 3713 1747 
Q 3713 922 3314 415 
Q 2916 -91 2278 -91 
Q 1894 -91 1617 61 
Q 1341 213 1159 525 
z
M 3116 1747 
Q 3116 2381 2855 2742 
Q 2594 3103 2138 3103 
Q 1681 3103 1420 2742 
Q 1159 2381 1159 1747 
Q 1159 1113 1420 752 
Q 1681 391 2138 391 
Q 2594 391 2855 752 
Q 3116 1113 3116 1747 
z
" transform="scale(0.015625)"/>
      <path id="DejaVuSans-63" d="M 3122 3366 
L 3122 2828 
Q 2878 2963 2633 3030 
Q 2388 3097 2138 3097 
Q 1578 3097 1268 2742 
Q 959 2388 959 1747 
Q 959 1106 1268 751 
Q 1578 397 2138 397 
Q 2388 397 2633 464 
Q 2878 531 3122 666 
L 3122 134 
Q 2881 22 2623 -34 
Q 2366 -91 2075 -91 
Q 1284 -91 818 406 
Q 353 903 353 1747 
Q 353 2603 823 3093 
Q 1294 3584 2113 3584 
Q 2378 3584 2631 3529 
Q 2884 3475 3122 3366 
z
" transform="scale(0.015625)"/>
      <path id="DejaVuSans-6f" d="M 1959 3097 
Q 1497 3097 1228 2736 
Q 959 2375 959 1747 
Q 959 1119 1226 758 
Q 1494 397 1959 397 
Q 2419 397 2687 759 
Q 2956 1122 2956 1747 
Q 2956 2369 2687 2733 
Q 2419 3097 1959 3097 
z
M 1959 3584 
Q 2709 3584 3137 3096 
Q 3566 2609 3566 1747 
Q 3566 888 3137 398 
Q 2709 -91 1959 -91 
Q 1206 -91 779 398 
Q 353 888 353 1747 
Q 353 2609 779 3096 
Q 1206 3584 1959 3584 
z
" transform="scale(0.015625)"/>
      <path id="DejaVuSans-66" d="M 2375 4863 
L 2375 4384 
L 1825 4384 
Q 1516 4384 1395 4259 
Q 1275 4134 1275 3809 
L 1275 3500 
L 2222 3500 
L 2222 3053 
L 1275 3053 
L 1275 0 
L 697 0 
L 697 3053 
L 147 3053 
L 147 3500 
L 697 3500 
L 697 3744 
Q 697 4328 969 4595 
Q 1241 4863 1831 4863 
L 2375 4863 
z
" transform="scale(0.015625)"/>
      <path id="DejaVuSans-50" d="M 1259 4147 
L 1259 2394 
L 2053 2394 
Q 2494 2394 2734 2622 
Q 2975 2850 2975 3272 
Q 2975 3691 2734 3919 
Q 2494 4147 2053 4147 
L 1259 4147 
z
M 628 4666 
L 2053 4666 
Q 2838 4666 3239 4311 
Q 3641 3956 3641 3272 
Q 3641 2581 3239 2228 
Q 2838 1875 2053 1875 
L 1259 1875 
L 1259 0 
L 628 0 
L 628 4666 
z
" transform="scale(0.015625)"/>
      <path id="DejaVuSans-72" d="M 2631 2963 
Q 2534 3019 2420 3045 
Q 2306 3072 2169 3072 
Q 1681 3072 1420 2755 
Q 1159 2438 1159 1844 
L 1159 0 
L 581 0 
L 581 3500 
L 1159 3500 
L 1159 2956 
Q 1341 3275 1631 3429 
Q 1922 3584 2338 3584 
Q 2397 3584 2469 3576 
Q 2541 3569 2628 3553 
L 2631 2963 
z
" transform="scale(0.015625)"/>
     </defs>
     <use xlink:href="#DejaVuSans-49"/>
     <use xlink:href="#DejaVuSans-6d" x="29.492188"/>
     <use xlink:href="#DejaVuSans-70" x="126.904297"/>
     <use xlink:href="#DejaVuSans-61" x="190.380859"/>
     <use xlink:href="#DejaVuSans-63" x="251.660156"/>
     <use xlink:href="#DejaVuSans-74" x="306.640625"/>
     <use xlink:href="#DejaVuSans-20" x="345.849609"/>
     <use xlink:href="#DejaVuSans-6f" x="377.636719"/>
     <use xlink:href="#DejaVuSans-66" x="438.818359"/>
     <use xlink:href="#DejaVuSans-20" x="474.023438"/>
     <use xlink:href="#DejaVuSans-44" x="505.810547"/>
     <use xlink:href="#DejaVuSans-4d" x="582.8125"/>
     <use xlink:href="#DejaVuSans-41" x="669.091797"/>
     <use xlink:href="#DejaVuSans-20" x="737.5"/>
     <use xlink:href="#DejaVuSans-6f" x="769.287109"/>
     <use xlink:href="#DejaVuSans-6e" x="830.46875"/>
     <use xlink:href="#DejaVuSans-20" x="893.847656"/>
     <use xlink:href="#DejaVuSans-50" x="925.634766"/>
     <use xlink:href="#DejaVuSans-65" x="982.3125"/>
     <use xlink:href="#DejaVuSans-72" x="1043.835938"/>
     <use xlink:href="#DejaVuSans-66" x="1084.949219"/>
     <use xlink:href="#DejaVuSans-6f" x="1120.154297"/>
     <use xlink:href="#DejaVuSans-72" x="1181.335938"/>
     <use xlink:href="#DejaVuSans-6d" x="1220.699219"/>
     <use xlink:href="#DejaVuSans-61" x="1318.111328"/>
     <use xlink:href="#DejaVuSans-6e" x="1379.390625"/>
     <use xlink:href="#DejaVuSans-63" x="1442.769531"/>
     <use xlink:href="#DejaVuSans-65" x="1497.75"/>
     <use xlink:href="#DejaVuSans-73" x="1559.273438"/>
    </g>
   </g>
   <g id="legend_1">
    <g id="patch_13">
     <path d="M 312.305938 93.506375 
L 407.72 93.506375 
Q 409.72 93.506375 409.72 91.506375 
L 409.72 48.472 
Q 409.72 46.472 407.72 46.472 
L 312.305938 46.472 
Q 310.305938 46.472 310.305938 48.472 
L 310.305938 91.506375 
Q 310.305938 93.506375 312.305938 93.506375 
z
" style="fill: #ffffff; opacity: 0.8; stroke: #cccccc; stroke-linejoin: miter"/>
    </g>
    <g id="patch_14">
     <path d="M 314.305938 58.070438 
L 334.305938 58.070438 
L 334.305938 51.070438 
L 314.305938 51.070438 
z
" style="fill: #1f77b4"/>
    </g>
    <g id="text_19">
     <!-- Game logic -->
     <g transform="translate(342.305938 58.070438) scale(0.1 -0.1)">
      <defs>
       <path id="DejaVuSans-47" d="M 3809 666 
L 3809 1919 
L 2778 1919 
L 2778 2438 
L 4434 2438 
L 4434 434 
Q 4069 175 3628 42 
Q 3188 -91 2688 -91 
Q 1594 -91 976 548 
Q 359 1188 359 2328 
Q 359 3472 976 4111 
Q 1594 4750 2688 4750 
Q 3144 4750 3555 4637 
Q 3966 4525 4313 4306 
L 4313 3634 
Q 3963 3931 3569 4081 
Q 3175 4231 2741 4231 
Q 1884 4231 1454 3753 
Q 1025 3275 1025 2328 
Q 1025 1384 1454 906 
Q 1884 428 2741 428 
Q 3075 428 3337 486 
Q 3600 544 3809 666 
z
" transform="scale(0.015625)"/>
       <path id="DejaVuSans-67" d="M 2906 1791 
Q 2906 2416 2648 2759 
Q 2391 3103 1925 3103 
Q 1463 3103 1205 2759 
Q 947 2416 947 1791 
Q 947 1169 1205 825 
Q 1463 481 1925 481 
Q 2391 481 2648 825 
Q 2906 1169 2906 1791 
z
M 3481 434 
Q 3481 -459 3084 -895 
Q 2688 -1331 1869 -1331 
Q 1566 -1331 1297 -1286 
Q 1028 -1241 775 -1147 
L 775 -588 
Q 1028 -725 1275 -790 
Q 1522 -856 1778 -856 
Q 2344 -856 2625 -561 
Q 2906 -266 2906 331 
L 2906 616 
Q 2728 306 2450 153 
Q 2172 0 1784 0 
Q 1141 0 747 490 
Q 353 981 353 1791 
Q 353 2603 747 3093 
Q 1141 3584 1784 3584 
Q 2172 3584 2450 3431 
Q 2728 3278 2906 2969 
L 2906 3500 
L 3481 3500 
L 3481 434 
z
" transform="scale(0.015625)"/>
      </defs>
      <use xlink:href="#DejaVuSans-47"/>
      <use xlink:href="#DejaVuSans-61" x="77.490234"/>
      <use xlink:href="#DejaVuSans-6d" x="138.769531"/>
      <use xlink:href="#DejaVuSans-65" x="236.181641"/>
      <use xlink:href="#DejaVuSans-20" x="297.705078"/>
      <use xlink:href="#DejaVuSans-6c" x="329.492188"/>
      <use xlink:href="#DejaVuSans-6f" x="357.275391"/>
      <use xlink:href="#DejaVuSans-67" x="418.457031"/>
      <use xlink:href="#DejaVuSans-69" x="481.933594"/>
      <use xlink:href="#DejaVuSans-63" x="509.716797"/>
     </g>
    </g>
    <g id="patch_15">
     <path d="M 314.305938 72.748563 
L 334.305938 72.748563 
L 334.305938 65.748563 
L 314.305938 65.748563 
z
" style="fill: #ff7f0e"/>
    </g>
    <g id="text_20">
     <!-- SPI transfer -->
     <g transform="translate(342.305938 72.748563) scale(0.1 -0.1)">
      <defs>
       <path id="DejaVuSans-53" d="M 3425 4513 
L 3425 3897 
Q 3066 4069 2747 4153 
Q 2428 4238 2131 4238 
Q 1616 4238 1336 4038 
Q 1056 3838 1056 3469 
Q 1056 3159 1242 3001 
Q 1428 2844 1947 2747 
L 2328 2669 
Q 3034 2534 3370 2195 
Q 3706 1856 3706 1288 
Q 3706 609 3251 259 
Q 2797 -91 1919 -91 
Q 1588 -91 1214 -16 
Q 841 59 441 206 
L 441 856 
Q 825 641 1194 531 
Q 1563 422 1919 422 
Q 2459 422 2753 634 
Q 3047 847 3047 1241 
Q 3047 1584 2836 1778 
Q 2625 1972 2144 2069 
L 1759 2144 
Q 1053 2284 737 2584 
Q 422 2884 422 3419 
Q 422 4038 858 4394 
Q 1294 4750 2059 4750 
Q 2388 4750 2728 4690 
Q 3069 4631 3425 4513 
z
" transform="scale(0.015625)"/>
      </defs>
      <use xlink:href="#DejaVuSans-53"/>
      <use xlink:href="#DejaVuSans-50" x="63.476562"/>
      <use xlink:href="#DejaVuSans-49" x="123.779297"/>
      <use xlink:href="#DejaVuSans-20" x="153.271484"/>
      <use xlink:href="#DejaVuSans-74" x="185.058594"/>
      <use xlink:href="#DejaVuSans-72" x="224.267578"/>
      <use xlink:href="#DejaVuSans-61" x="265.380859"/>
      <use xlink:href="#DejaVuSans-6e" x="326.660156"/>
      <use xlink:href="#DejaVuSans-73" x="390.039062"/>
      <use xlink:href="#DejaVuSans-66" x="442.138672"/>
      <use xlink:href="#DejaVuSans-65" x="477.34375"/>
      <use xlink:href="#DejaVuSans-72" x="538.867188"/>
     </g>
    </g>
    <g id="patch_16">
     <path d="M 314.305938 87.426688 
L 334.305938 87.426688 
L 334.305938 80.426688 
L 314.305938 80.426688 
z
" style="fill: #2ca02c"/>
    </g>
    <g id="text_21">
     <!-- BLE (mainly) -->
     <g transform="translate(342.305938 87.426688) scale(0.1 -0.1)">
      <defs>
       <path id="DejaVuSans-42" d="M 1259 2228 
L 1259 519 
L 2272 519 
Q 2781 519 3026 730 
Q 3272 941 3272 1375 
Q 3272 1813 3026 2020 
Q 2781 2228 2272 2228 
L 1259 2228 
z
M 1259 4147 
L 1259 2741 
L 2194 2741 
Q 2656 2741 2882 2914 
Q 3109 3088 3109 3444 
Q 3109 3797 2882 3972 
Q 2656 4147 2194 4147 
L 1259 4147 
z
M 628 4666 
L 2241 4666 
Q 2963 4666 3353 4366 
Q 3744 4066 3744 3513 
Q 3744 3084 3544 2831 
Q 3344 2578 2956 2516 
Q 3422 2416 3680 2098 
Q 3938 1781 3938 1306 
Q 3938 681 3513 340 
Q 3088 0 2303 0 
L 628 0 
L 628 4666 
z
" transform="scale(0.015625)"/>
       <path id="DejaVuSans-4c" d="M 628 4666 
L 1259 4666 
L 1259 531 
L 3531 531 
L 3531 0 
L 628 0 
L 628 4666 
z
" transform="scale(0.015625)"/>
       <path id="DejaVuSans-45" d="M 628 4666 
L 3578 4666 
L 3578 4134 
L 1259 4134 
L 1259 2753 
L 3481 2753 
L 3481 2222 
L 1259 2222 
L 1259 531 
L 3634 531 
L 3634 0 
L 628 0 
L 628 4666 
z
" transform="scale(0.015625)"/>
       <path id="DejaVuSans-79" d="M 2059 -325 
Q 1816 -950 1584 -1140 
Q 1353 -1331 966 -1331 
L 506 -1331 
L 506 -850 
L 844 -850 
Q 1081 -850 1212 -737 
Q 1344 -625 1503 -206 
L 1606 56 
L 191 3500 
L 800 3500 
L 1894 763 
L 2988 3500 
L 3597 3500 
L 2059 -325 
z
" transform="scale(0.015625)"/>
      </defs>
      <use xlink:href="#DejaVuSans-42"/>
      <use xlink:href="#DejaVuSans-4c" x="68.603516"/>
      <use xlink:href="#DejaVuSans-45" x="124.316406"/>
      <use xlink:href="#DejaVuSans-20" x="187.5"/>
      <use xlink:href="#DejaVuSans-28" x="219.287109"/>
      <use xlink:href="#DejaVuSans-6d" x="258.300781"/>
      <use xlink:href="#DejaVuSans-61" x="355.712891"/>
      <use xlink:href="#DejaVuSans-69" x="416.992188"/>
      <use xlink:href="#DejaVuSans-6e" x="444.775391"/>
      <use xlink:href="#DejaVuSans-6c" x="508.154297"/>
      <use xlink:href="#DejaVuSans-79" x="535.9375"/>
      <use xlink:href="#DejaVuSans-29" x="595.117188"/>
     </g>
    </g>
   </g>
  </g>
 </g>
 <defs>
  <clipPath id="p9050b59d61">
   <rect x="57.6" y="41.472" width="357.12" height="266.112"/>
  </clipPath>
 </defs>
</svg>
