<?xml version="1.0" encoding="UTF-8" standalone="no"?>
<svg
   width="769.47058"
   height="161.84"
   viewBox="0 0 577.10293 121.38"
   version="1.1"
   id="svg275"
   xmlns="http://www.w3.org/2000/svg"
   xmlns:svg="http://www.w3.org/2000/svg"
   xmlns:rdf="http://www.w3.org/1999/02/22-rdf-syntax-ns#"
   xmlns:cc="http://creativecommons.org/ns#"
   xmlns:dc="http://purl.org/dc/elements/1.1/">
  <metadata
     id="metadata2">
    <rdf:RDF>
      <cc:Work>
        <dc:type
           rdf:resource="http://purl.org/dc/dcmitype/StillImage" />
        <dc:date>2023-07-04T17:14:22.374281</dc:date>
        <dc:format>image/svg+xml</dc:format>
        <dc:creator>
          <cc:Agent>
            <dc:title>Matplotlib v3.7.1, https://matplotlib.org/</dc:title>
          </cc:Agent>
        </dc:creator>
      </cc:Work>
    </rdf:RDF>
  </metadata>
  <defs
     id="defs6">
    <marker
       style="overflow:visible"
       id="TriangleStart"
       refX="0"
       refY="0"
       orient="auto-start-reverse"
       markerWidth="5.2853045"
       markerHeight="6"
       viewBox="0 0 4.9916334 5.6666178"
       preserveAspectRatio="xMidYMid"
       markerUnits="userSpaceOnUse">
      <path
         transform="scale(0.5)"
         style="fill:context-stroke;fill-rule:evenodd;stroke:context-stroke;stroke-width:1pt"
         d="M 5.77,0 -2.88,5 V -5 Z"
         id="path135" />
    </marker>
    <style
       type="text/css"
       id="style4">*{stroke-linejoin: round; stroke-linecap: butt}</style>
  </defs>
  <g
     id="figure_1"
     transform="translate(-26.82326,-10.464648)">
    <g
       id="axes_1">
      <g
         id="g1849"
         transform="translate(-23.613441)">
        <g
           id="g1867"
           transform="translate(17.105726)">
          <g
             id="line2d_15"
             transform="translate(-50.930449,-10.042624)">
            <path
               d="m 111.74891,20.7576 h 6.02541 l 0.12296,93.744 h 6.02541 l 0.12297,-93.744 h 6.02541 l 0.12297,93.744 h 6.0254 l 0.12297,-93.744 h 6.02541 l 0.12297,93.744 h 6.0254 l 0.12297,-93.744 h 6.02541 l 0.12297,93.744 h 6.02541 l 0.12296,-93.744 h 6.02541 l 0.12297,93.744 h 6.02541 l 0.12297,-93.744 h 6.0254 l 0.12297,93.744 h 6.02541 l 0.12297,-93.744 h 6.0254 l 0.12297,93.744 h 6.02541 l 0.12297,-93.744 h 6.02541 l 0.12296,93.744 h 6.02541 l 0.12297,-93.744 h 6.02541 l 0.12296,93.744 h 6.02541 l 0.12297,-93.744 h 6.02541 l 0.12297,93.744 h 5.90244 l 0.12296,-93.744 v 0"
               clip-path="url(#p3833be6560)"
               style="fill:none;stroke:#0000ff;stroke-width:0.5;stroke-linecap:square"
               id="path244" />
          </g>
          <g
             id="line2d_16"
             transform="translate(-50.930449,-10.042624)">
            <path
               d="m 234.59345,20.7576 h 2.95122 l 0.12297,93.744 h 2.95122 l 0.12297,-93.744 h 2.95122 l 0.12297,93.744 h 2.95122 l 0.12297,-93.744 h 2.95122 l 0.12296,93.744 h 2.95122 l 0.12297,-93.744 h 2.95122 l 0.12297,93.744 h 2.95122 l 0.12297,-93.744 h 2.95122 l 0.12296,93.744 h 2.95122 l 0.12297,-93.744 h 2.95122 l 0.12297,93.744 h 2.95122 l 0.12297,-93.744 h 2.95122 l 0.12297,93.744 h 2.95122 l 0.12296,-93.744 h 2.95122 l 0.12297,93.744 h 2.95122 l 0.12297,-93.744 h 2.95122 l 0.12297,93.744 h 2.95122 l 0.12296,-93.744 h 2.95123 l 0.12296,93.744 h 2.95122 l 0.12297,-93.744 h 2.95122 l 0.12297,93.744 h 2.95122 l 0.12297,-93.744 h 2.95122 l 0.12296,93.744 h 2.95122 l 0.12297,-93.744 h 2.95122 l 0.12297,93.744 h 2.95122 l 0.12297,-93.744 h 2.95122 l 0.12297,93.744 h 2.95122 l 0.12296,-93.744 h 2.95122 l 0.12297,93.744 h 2.95122 l 0.12297,-93.744 h 2.95122 l 0.12297,93.744 h 2.95122 l 0.12296,-93.744 h 2.95122 l 0.12297,93.744 h 2.95122 l 0.12297,-93.744 h 2.95122 l 0.12297,93.744 h 2.95122 l 0.12297,-93.744 h 2.95122 l 0.12296,93.744 h 2.95122 l 0.12297,-93.744 h 2.95122 l 0.12297,93.744 h 2.82825 l 0.12297,-93.744 v 0"
               clip-path="url(#p3833be6560)"
               style="fill:none;stroke:#0000ff;stroke-width:0.5;stroke-linecap:square"
               id="path247" />
          </g>
          <g
             id="line2d_17"
             transform="translate(-50.930449,-10.042624)">
            <path
               d="m 357.438,20.7576 h 6.02541 l 0.12297,93.744 h 6.0254 l 0.12297,-93.744 h 6.02541 l 0.12297,93.744 h 6.0254 l 0.12297,-93.744 h 6.02541 l 0.12297,93.744 h 6.02541 l 0.12296,-93.744 h 6.02541 l 0.12297,93.744 h 6.02541 l 0.12296,-93.744 h 6.02541 l 0.12297,93.744 h 6.02541 l 0.12297,-93.744 h 6.0254 l 0.12297,93.744 h 6.02541 l 0.12297,-93.744 h 6.02541 l 0.12296,93.744 h 6.02541 l 0.12297,-93.744 h 6.02541 l 0.12296,93.744 h 6.02541 l 0.12297,-93.744 h 6.02541 l 0.12297,93.744 h 6.0254 l 0.12297,-93.744 h 6.02541 l 0.12297,93.744 h 5.90244 l 0.12297,-93.744 v 0"
               clip-path="url(#p3833be6560)"
               style="fill:none;stroke:#0000ff;stroke-width:0.5;stroke-linecap:square"
               id="path250" />
          </g>
          <g
             id="line2d_18"
             transform="translate(-50.930449,-10.042624)">
            <path
               d="m 480.28255,20.7576 h 2.95122 l 0.12296,93.744 h 2.95122 l 0.12297,-93.744 h 2.95122 l 0.12297,93.744 h 2.95122 l 0.12297,-93.744 h 2.95122 l 0.12296,93.744 h 2.95123 l 0.12296,-93.744 h 2.95122 l 0.12297,93.744 h 2.95122 l 0.12297,-93.744 h 2.95122 l 0.12297,93.744 h 2.95122 l 0.12296,-93.744 h 2.95122 l 0.12297,93.744 h 2.95122 l 0.12297,-93.744 h 2.95122 l 0.12297,93.744 h 2.95122 l 0.12297,-93.744 h 2.95121 l 0.12297,93.744 h 2.95122 l 0.12297,-93.744 h 2.95122 l 0.12297,93.744 h 2.95122 l 0.12297,-93.744 h 2.95122 l 0.12296,93.744 h 2.95122 l 0.12297,-93.744 h 2.95122 l 0.12297,93.744 h 2.95122 l 0.12297,-93.744 h 2.95122 l 0.12297,93.744 h 2.95122 l 0.12296,-93.744 h 2.95122 l 0.12297,93.744 h 2.95122 l 0.12297,-93.744 h 2.95122 l 0.12297,93.744 h 2.95122 l 0.12297,-93.744 h 2.95121 l 0.12297,93.744 h 2.95122 l 0.12297,-93.744 h 2.95122 l 0.12297,93.744 h 2.95122 l 0.12297,-93.744 h 2.95122 l 0.12296,93.744 h 2.95122 l 0.12297,-93.744 h 2.95122 l 0.12297,93.744 h 2.95122 l 0.12297,-93.744 h 2.95122 l 0.12297,93.744 h 2.95121 l 0.12297,-93.744 h 2.95122 l 0.12297,93.744 h 2.82825 l 0.12297,-93.744 v 0"
               clip-path="url(#p3833be6560)"
               style="fill:none;stroke:#0000ff;stroke-width:0.5;stroke-linecap:square"
               id="path253" />
          </g>
        </g>
        <path
           style="fill:#000000;fill-opacity:1;stroke:#000000;stroke-width:0.75;stroke-linecap:round;stroke-linejoin:round;stroke-dasharray:none;stroke-opacity:1;marker-end:url(#TriangleStart);paint-order:markers stroke fill"
           d="M 50.811701,56.917375 H 591.67872"
           id="path1592" />
        <text
           xml:space="preserve"
           style="font-style:normal;font-variant:normal;font-weight:normal;font-stretch:normal;font-size:13px;font-family:Consolas;-inkscape-font-specification:'Consolas, Normal';font-variant-ligatures:normal;font-variant-caps:normal;font-variant-numeric:normal;font-variant-east-asian:normal;fill:#000000;fill-opacity:1;stroke:none;stroke-width:0.75;stroke-linecap:round;stroke-linejoin:round;stroke-dasharray:none;stroke-opacity:1;paint-order:markers stroke fill"
           x="599.69885"
           y="60.715576"
           id="text1923"><tspan
             id="tspan1921"
             style="font-style:normal;font-variant:normal;font-weight:normal;font-stretch:normal;font-size:13px;font-family:Consolas;-inkscape-font-specification:'Consolas, Normal';font-variant-ligatures:normal;font-variant-caps:normal;font-variant-numeric:normal;font-variant-east-asian:normal;fill:#000000;fill-opacity:1;stroke:none;stroke-width:0.75;stroke-opacity:1"
             x="599.69885"
             y="60.715576">time</tspan></text>
        <text
           xml:space="preserve"
           style="font-style:normal;font-variant:normal;font-weight:normal;font-stretch:normal;font-size:17px;font-family:Consolas;-inkscape-font-specification:'Consolas, Normal';font-variant-ligatures:normal;font-variant-caps:normal;font-variant-numeric:normal;font-variant-east-asian:normal;fill:#000000;fill-opacity:1;stroke:none;stroke-width:0.75;stroke-linecap:round;stroke-linejoin:round;stroke-dasharray:none;stroke-opacity:1;paint-order:markers stroke fill"
           x="133.23134"
           y="129.97795"
           id="text2019"><tspan
             id="tspan2017"
             style="font-style:normal;font-variant:normal;font-weight:normal;font-stretch:normal;font-size:17px;font-family:Consolas;-inkscape-font-specification:'Consolas, Normal';font-variant-ligatures:normal;font-variant-caps:normal;font-variant-numeric:normal;font-variant-east-asian:normal;stroke-width:0.75"
             x="133.23134"
             y="129.97795">f<tspan
   style="font-style:normal;font-variant:normal;font-weight:normal;font-stretch:normal;font-size:17px;font-family:Consolas;-inkscape-font-specification:'Consolas, Normal';font-variant-ligatures:normal;font-variant-position:sub;font-variant-caps:normal;font-variant-numeric:normal;font-variant-east-asian:normal"
   id="tspan2025">1</tspan></tspan></text>
        <text
           xml:space="preserve"
           style="font-style:normal;font-variant:normal;font-weight:normal;font-stretch:normal;font-size:17px;font-family:Consolas;-inkscape-font-specification:'Consolas, Normal';font-variant-ligatures:normal;font-variant-caps:normal;font-variant-numeric:normal;font-variant-east-asian:normal;fill:#000000;fill-opacity:1;stroke:none;stroke-width:0.75;stroke-linecap:round;stroke-linejoin:round;stroke-dasharray:none;stroke-opacity:1;paint-order:markers stroke fill"
           x="258.25894"
           y="129.97795"
           id="text2019-6"><tspan
             id="tspan2017-0"
             style="font-style:normal;font-variant:normal;font-weight:normal;font-stretch:normal;font-size:17px;font-family:Consolas;-inkscape-font-specification:'Consolas, Normal';font-variant-ligatures:normal;font-variant-caps:normal;font-variant-numeric:normal;font-variant-east-asian:normal;stroke-width:0.75"
             x="258.25894"
             y="129.97795">f<tspan
   style="font-style:normal;font-variant:normal;font-weight:normal;font-stretch:normal;font-size:17px;font-family:Consolas;-inkscape-font-specification:'Consolas, Normal';font-variant-ligatures:normal;font-variant-position:sub;font-variant-caps:normal;font-variant-numeric:normal;font-variant-east-asian:normal"
   id="tspan2059">2</tspan></tspan></text>
        <text
           xml:space="preserve"
           style="font-style:normal;font-variant:normal;font-weight:normal;font-stretch:normal;font-size:17px;font-family:Consolas;-inkscape-font-specification:'Consolas, Normal';font-variant-ligatures:normal;font-variant-caps:normal;font-variant-numeric:normal;font-variant-east-asian:normal;fill:#000000;fill-opacity:1;stroke:none;stroke-width:0.75;stroke-linecap:round;stroke-linejoin:round;stroke-dasharray:none;stroke-opacity:1;paint-order:markers stroke fill"
           x="380.8902"
           y="129.92717"
           id="text2019-9"><tspan
             id="tspan2017-4"
             style="font-style:normal;font-variant:normal;font-weight:normal;font-stretch:normal;font-size:17px;font-family:Consolas;-inkscape-font-specification:'Consolas, Normal';font-variant-ligatures:normal;font-variant-caps:normal;font-variant-numeric:normal;font-variant-east-asian:normal;stroke-width:0.75"
             x="380.8902"
             y="129.92717">f<tspan
   style="font-style:normal;font-variant:normal;font-weight:normal;font-stretch:normal;font-size:17px;font-family:Consolas;-inkscape-font-specification:'Consolas, Normal';font-variant-ligatures:normal;font-variant-position:sub;font-variant-caps:normal;font-variant-numeric:normal;font-variant-east-asian:normal"
   id="tspan2103">3</tspan></tspan></text>
        <text
           xml:space="preserve"
           style="font-style:normal;font-variant:normal;font-weight:normal;font-stretch:normal;font-size:17px;font-family:Consolas;-inkscape-font-specification:'Consolas, Normal';font-variant-ligatures:normal;font-variant-caps:normal;font-variant-numeric:normal;font-variant-east-asian:normal;fill:#000000;fill-opacity:1;stroke:none;stroke-width:0.75;stroke-linecap:round;stroke-linejoin:round;stroke-dasharray:none;stroke-opacity:1;paint-order:markers stroke fill"
           x="503.95712"
           y="129.97795"
           id="text2019-3"><tspan
             id="tspan2017-6"
             style="font-style:normal;font-variant:normal;font-weight:normal;font-stretch:normal;font-size:17px;font-family:Consolas;-inkscape-font-specification:'Consolas, Normal';font-variant-ligatures:normal;font-variant-caps:normal;font-variant-numeric:normal;font-variant-east-asian:normal;stroke-width:0.75"
             x="503.95712"
             y="129.97795">f<tspan
   style="font-style:normal;font-variant:normal;font-weight:normal;font-stretch:normal;font-size:17px;font-family:Consolas;-inkscape-font-specification:'Consolas, Normal';font-variant-ligatures:normal;font-variant-position:sub;font-variant-caps:normal;font-variant-numeric:normal;font-variant-east-asian:normal"
   id="tspan2105">4</tspan></tspan></text>
      </g>
    </g>
  </g>
  <defs
     id="defs273">
    <clipPath
       id="p3833be6560">
      <rect
         x="87.18"
         y="16.0704"
         width="540.51599"
         height="103.1184"
         id="rect270" />
    </clipPath>
  </defs>
</svg>
