<?xml version="1.0" encoding="UTF-8" standalone="no"?>
<svg
   width="384.56528pt"
   height="310.82544pt"
   viewBox="0 0 384.56529 310.82543"
   version="1.1"
   id="svg1264"
   sodipodi:docname="motion_profile.svg"
   inkscape:export-filename="..\..\..\..\bitmap.svg"
   inkscape:export-xdpi="96"
   inkscape:export-ydpi="96"
   xmlns:inkscape="http://www.inkscape.org/namespaces/inkscape"
   xmlns:sodipodi="http://sodipodi.sourceforge.net/DTD/sodipodi-0.dtd"
   xmlns:xlink="http://www.w3.org/1999/xlink"
   xmlns="http://www.w3.org/2000/svg"
   xmlns:svg="http://www.w3.org/2000/svg"
   xmlns:rdf="http://www.w3.org/1999/02/22-rdf-syntax-ns#"
   xmlns:cc="http://creativecommons.org/ns#"
   xmlns:dc="http://purl.org/dc/elements/1.1/">
  <sodipodi:namedview
     id="namedview1266"
     pagecolor="#ffffff"
     bordercolor="#000000"
     borderopacity="0.25"
     inkscape:showpageshadow="2"
     inkscape:pageopacity="0.0"
     inkscape:pagecheckerboard="0"
     inkscape:deskcolor="#d1d1d1"
     inkscape:document-units="pt"
     showgrid="false" />
  <metadata
     id="metadata700">
    <rdf:RDF>
      <cc:Work>
        <dc:type
           rdf:resource="http://purl.org/dc/dcmitype/StillImage" />
        <dc:date>2023-06-18T19:32:51.372238</dc:date>
        <dc:format>image/svg+xml</dc:format>
        <dc:creator>
          <cc:Agent>
            <dc:title>Matplotlib v3.7.1, https://matplotlib.org/</dc:title>
          </cc:Agent>
        </dc:creator>
      </cc:Work>
    </rdf:RDF>
  </metadata>
  <defs
     id="defs704">
    <style
       type="text/css"
       id="style702">*{stroke-linejoin: round; stroke-linecap: butt}</style>
  </defs>
  <g
     id="figure_1"
     transform="translate(-2.1119799,-0.01308818)">
    <g
       id="axes_1"
       transform="translate(-28.442708,-26.340787)"
       inkscape:export-filename="..\..\..\..\axes_1.svg"
       inkscape:export-xdpi="96"
       inkscape:export-ydpi="96">
      <g
         id="patch_2">
        <path
           d="M 57.6,307.584 H 414.72 V 41.472 H 57.6 Z"
           style="fill:#ffffff"
           id="path709" />
      </g>
      <g
         id="matplotlib.axis_1">
        <g
           id="xtick_1">
          <g
             id="line2d_1">
            <path
               d="M 73.832727,307.584 V 41.472"
               clip-path="url(#p12aef373d2)"
               style="fill:none;stroke:#b0b0b0;stroke-width:0.8;stroke-linecap:square"
               id="path712" />
          </g>
          <g
             id="line2d_2">
            <defs
               id="defs716">
              <path
                 id="m4e8cd57f43"
                 d="M 0,0 V 3.5"
                 style="stroke:#000000;stroke-width:0.8" />
            </defs>
            <g
               id="g720">
              <use
                 xlink:href="#m4e8cd57f43"
                 x="73.832726"
                 y="307.58401"
                 style="stroke:#000000;stroke-width:0.8"
                 id="use718" />
            </g>
          </g>
          <g
             id="text_1">
            <!-- 0 -->
            <g
               transform="matrix(0.1,0,0,-0.1,70.651477,322.18244)"
               id="g728">
              <defs
                 id="defs724">
                <path
                   id="DejaVuSans-30"
                   d="m 2034,4250 q -487,0 -733,-480 -245,-479 -245,-1442 0,-959 245,-1439 246,-480 733,-480 491,0 736,480 246,480 246,1439 0,963 -246,1442 -245,480 -736,480 z m 0,500 q 785,0 1199,-621 414,-620 414,-1801 0,-1178 -414,-1799 -414,-620 -1199,-620 -784,0 -1198,620 -414,621 -414,1799 0,1181 414,1801 414,621 1198,621 z"
                   transform="scale(0.015625)" />
              </defs>
              <use
                 xlink:href="#DejaVuSans-30"
                 id="use726" />
            </g>
          </g>
        </g>
        <g
           id="xtick_2">
          <g
             id="line2d_3">
            <path
               d="M 127.942,307.584 V 41.472"
               clip-path="url(#p12aef373d2)"
               style="fill:none;stroke:#b0b0b0;stroke-width:0.8;stroke-linecap:square"
               id="path732" />
          </g>
          <g
             id="line2d_4">
            <g
               id="g737">
              <use
                 xlink:href="#m4e8cd57f43"
                 x="127.942"
                 y="307.58401"
                 style="stroke:#000000;stroke-width:0.8"
                 id="use735" />
            </g>
          </g>
          <g
             id="text_2">
            <!-- 500 -->
            <g
               transform="matrix(0.1,0,0,-0.1,118.39825,322.18244)"
               id="g749">
              <defs
                 id="defs741">
                <path
                   id="DejaVuSans-35"
                   d="M 691,4666 H 3169 V 4134 H 1269 V 2991 q 137,47 274,70 138,23 276,23 781,0 1237,-428 457,-428 457,-1159 Q 3513,744 3044,326 2575,-91 1722,-91 1428,-91 1123,-41 819,9 494,109 v 635 q 281,-153 581,-228 300,-75 634,-75 541,0 856,284 316,284 316,772 0,487 -316,771 -315,285 -856,285 -253,0 -505,-56 -251,-56 -513,-175 z"
                   transform="scale(0.015625)" />
              </defs>
              <use
                 xlink:href="#DejaVuSans-35"
                 id="use743" />
              <use
                 xlink:href="#DejaVuSans-30"
                 x="63.623047"
                 id="use745" />
              <use
                 xlink:href="#DejaVuSans-30"
                 x="127.24609"
                 id="use747" />
            </g>
          </g>
        </g>
        <g
           id="xtick_3">
          <g
             id="line2d_5">
            <path
               d="M 182.05127,307.584 V 41.472"
               clip-path="url(#p12aef373d2)"
               style="fill:none;stroke:#b0b0b0;stroke-width:0.8;stroke-linecap:square"
               id="path753" />
          </g>
          <g
             id="line2d_6">
            <g
               id="g758">
              <use
                 xlink:href="#m4e8cd57f43"
                 x="182.05127"
                 y="307.58401"
                 style="stroke:#000000;stroke-width:0.8"
                 id="use756" />
            </g>
          </g>
          <g
             id="text_3">
            <!-- 1000 -->
            <g
               transform="matrix(0.1,0,0,-0.1,169.32627,322.18244)"
               id="g772">
              <defs
                 id="defs762">
                <path
                   id="DejaVuSans-31"
                   d="M 794,531 H 1825 V 4091 L 703,3866 v 575 l 1116,225 h 631 V 531 H 3481 V 0 H 794 Z"
                   transform="scale(0.015625)" />
              </defs>
              <use
                 xlink:href="#DejaVuSans-31"
                 id="use764" />
              <use
                 xlink:href="#DejaVuSans-30"
                 x="63.623047"
                 id="use766" />
              <use
                 xlink:href="#DejaVuSans-30"
                 x="127.24609"
                 id="use768" />
              <use
                 xlink:href="#DejaVuSans-30"
                 x="190.86914"
                 id="use770" />
            </g>
          </g>
        </g>
        <g
           id="xtick_4">
          <g
             id="line2d_7">
            <path
               d="M 236.16054,307.584 V 41.472"
               clip-path="url(#p12aef373d2)"
               style="fill:none;stroke:#b0b0b0;stroke-width:0.8;stroke-linecap:square"
               id="path776" />
          </g>
          <g
             id="line2d_8">
            <g
               id="g781">
              <use
                 xlink:href="#m4e8cd57f43"
                 x="236.16054"
                 y="307.58401"
                 style="stroke:#000000;stroke-width:0.8"
                 id="use779" />
            </g>
          </g>
          <g
             id="text_4">
            <!-- 1500 -->
            <g
               transform="matrix(0.1,0,0,-0.1,223.43554,322.18244)"
               id="g792">
              <use
                 xlink:href="#DejaVuSans-31"
                 id="use784" />
              <use
                 xlink:href="#DejaVuSans-35"
                 x="63.623047"
                 id="use786" />
              <use
                 xlink:href="#DejaVuSans-30"
                 x="127.24609"
                 id="use788" />
              <use
                 xlink:href="#DejaVuSans-30"
                 x="190.86914"
                 id="use790" />
            </g>
          </g>
        </g>
        <g
           id="xtick_5">
          <g
             id="line2d_9">
            <path
               d="M 290.26981,307.584 V 41.472"
               clip-path="url(#p12aef373d2)"
               style="fill:none;stroke:#b0b0b0;stroke-width:0.8;stroke-linecap:square"
               id="path796" />
          </g>
          <g
             id="line2d_10">
            <g
               id="g801">
              <use
                 xlink:href="#m4e8cd57f43"
                 x="290.26981"
                 y="307.58401"
                 style="stroke:#000000;stroke-width:0.8"
                 id="use799" />
            </g>
          </g>
          <g
             id="text_5">
            <!-- 2000 -->
            <g
               transform="matrix(0.1,0,0,-0.1,277.54481,322.18244)"
               id="g815">
              <defs
                 id="defs805">
                <path
                   id="DejaVuSans-32"
                   d="M 1228,531 H 3431 V 0 H 469 v 531 q 359,372 979,998 621,627 780,809 303,340 423,576 121,236 121,464 0,372 -261,606 -261,235 -680,235 -297,0 -627,-103 -329,-103 -704,-313 v 638 q 381,153 712,231 332,78 607,78 725,0 1156,-363 431,-362 431,-968 0,-288 -108,-546 -107,-257 -392,-607 -78,-91 -497,-524 Q 1991,1309 1228,531 Z"
                   transform="scale(0.015625)" />
              </defs>
              <use
                 xlink:href="#DejaVuSans-32"
                 id="use807" />
              <use
                 xlink:href="#DejaVuSans-30"
                 x="63.623047"
                 id="use809" />
              <use
                 xlink:href="#DejaVuSans-30"
                 x="127.24609"
                 id="use811" />
              <use
                 xlink:href="#DejaVuSans-30"
                 x="190.86914"
                 id="use813" />
            </g>
          </g>
        </g>
        <g
           id="xtick_6">
          <g
             id="line2d_11">
            <path
               d="M 344.37908,307.584 V 41.472"
               clip-path="url(#p12aef373d2)"
               style="fill:none;stroke:#b0b0b0;stroke-width:0.8;stroke-linecap:square"
               id="path819" />
          </g>
          <g
             id="line2d_12">
            <g
               id="g824">
              <use
                 xlink:href="#m4e8cd57f43"
                 x="344.37909"
                 y="307.58401"
                 style="stroke:#000000;stroke-width:0.8"
                 id="use822" />
            </g>
          </g>
          <g
             id="text_6">
            <!-- 2500 -->
            <g
               transform="matrix(0.1,0,0,-0.1,331.65408,322.18244)"
               id="g835">
              <use
                 xlink:href="#DejaVuSans-32"
                 id="use827" />
              <use
                 xlink:href="#DejaVuSans-35"
                 x="63.623047"
                 id="use829" />
              <use
                 xlink:href="#DejaVuSans-30"
                 x="127.24609"
                 id="use831" />
              <use
                 xlink:href="#DejaVuSans-30"
                 x="190.86914"
                 id="use833" />
            </g>
          </g>
        </g>
        <g
           id="xtick_7">
          <g
             id="line2d_13">
            <path
               d="M 398.48836,307.584 V 41.472"
               clip-path="url(#p12aef373d2)"
               style="fill:none;stroke:#b0b0b0;stroke-width:0.8;stroke-linecap:square"
               id="path839" />
          </g>
          <g
             id="line2d_14">
            <g
               id="g844">
              <use
                 xlink:href="#m4e8cd57f43"
                 x="398.48834"
                 y="307.58401"
                 style="stroke:#000000;stroke-width:0.8"
                 id="use842" />
            </g>
          </g>
          <g
             id="text_7">
            <!-- 3000 -->
            <g
               transform="matrix(0.1,0,0,-0.1,385.76335,322.18244)"
               id="g858">
              <defs
                 id="defs848">
                <path
                   id="DejaVuSans-33"
                   d="m 2597,2516 q 453,-97 707,-404 255,-306 255,-756 0,-690 -475,-1069 -475,-378 -1350,-378 -293,0 -604,58 -311,58 -642,174 v 609 q 262,-153 574,-231 313,-78 654,-78 593,0 904,234 311,234 311,681 0,413 -289,645 -289,233 -804,233 h -544 v 519 h 569 q 465,0 712,186 247,186 247,536 0,359 -255,551 -254,193 -729,193 -260,0 -557,-57 -297,-56 -653,-174 v 562 q 360,100 674,150 314,50 592,50 719,0 1137,-327 419,-326 419,-882 0,-388 -222,-655 -222,-267 -631,-370 z"
                   transform="scale(0.015625)" />
              </defs>
              <use
                 xlink:href="#DejaVuSans-33"
                 id="use850" />
              <use
                 xlink:href="#DejaVuSans-30"
                 x="63.623047"
                 id="use852" />
              <use
                 xlink:href="#DejaVuSans-30"
                 x="127.24609"
                 id="use854" />
              <use
                 xlink:href="#DejaVuSans-30"
                 x="190.86914"
                 id="use856" />
            </g>
          </g>
        </g>
        <g
           id="text_8">
          <!-- time (ms) -->
          <g
             transform="matrix(0.1,0,0,-0.1,211.89828,335.86056)"
             id="g890">
            <defs
               id="defs870">
              <path
                 id="DejaVuSans-74"
                 d="M 1172,4494 V 3500 H 2356 V 3053 H 1172 V 1153 q 0,-428 117,-550 117,-122 477,-122 h 590 V 0 H 1766 Q 1100,0 847,248 594,497 594,1153 V 3053 H 172 v 447 h 422 v 994 z"
                 transform="scale(0.015625)" />
              <path
                 id="DejaVuSans-69"
                 d="m 603,3500 h 575 V 0 H 603 Z m 0,1363 h 575 V 4134 H 603 Z"
                 transform="scale(0.015625)" />
              <path
                 id="DejaVuSans-6d"
                 d="m 3328,2828 q 216,388 516,572 300,184 706,184 547,0 844,-383 297,-382 297,-1088 V 0 h -578 v 2094 q 0,503 -179,746 -178,244 -543,244 -447,0 -707,-297 -259,-296 -259,-809 V 0 h -578 v 2094 q 0,506 -178,748 -178,242 -550,242 -441,0 -701,-298 -259,-298 -259,-808 V 0 H 581 v 3500 h 578 v -544 q 197,322 472,475 275,153 653,153 382,0 649,-194 267,-193 395,-562 z"
                 transform="scale(0.015625)" />
              <path
                 id="DejaVuSans-65"
                 d="M 3597,1894 V 1613 H 953 q 38,-594 358,-905 320,-311 892,-311 331,0 642,81 311,81 618,244 V 178 Q 3153,47 2828,-22 2503,-91 2169,-91 1331,-91 842,396 353,884 353,1716 q 0,859 464,1363 464,505 1252,505 706,0 1117,-455 411,-454 411,-1235 z m -575,169 q -6,471 -264,752 -258,282 -683,282 -481,0 -770,-272 -289,-272 -333,-766 z"
                 transform="scale(0.015625)" />
              <path
                 id="DejaVuSans-20"
                 transform="scale(0.015625)"
                 d="" />
              <path
                 id="DejaVuSans-28"
                 d="m 1984,4856 q -418,-718 -622,-1422 -203,-703 -203,-1425 0,-721 205,-1429 205,-708 620,-1424 h -500 q -468,735 -701,1444 -233,709 -233,1409 0,697 231,1403 232,707 703,1444 z"
                 transform="scale(0.015625)" />
              <path
                 id="DejaVuSans-73"
                 d="m 2834,3397 v -544 q -243,125 -506,187 -262,63 -544,63 -428,0 -642,-131 -214,-131 -214,-394 0,-200 153,-314 153,-114 616,-217 l 197,-44 q 612,-131 870,-370 258,-239 258,-667 0,-488 -386,-773 Q 2250,-91 1575,-91 1294,-91 989,-36 684,19 347,128 v 594 q 319,-166 628,-249 309,-82 613,-82 406,0 624,139 219,139 219,392 0,234 -158,359 -157,125 -692,241 l -200,47 q -534,112 -772,345 -237,233 -237,639 0,494 350,762 350,269 994,269 318,0 599,-47 282,-46 519,-140 z"
                 transform="scale(0.015625)" />
              <path
                 id="DejaVuSans-29"
                 d="m 513,4856 h 500 q 468,-737 701,-1444 233,-706 233,-1403 0,-700 -233,-1409 -233,-709 -701,-1444 H 513 q 415,716 620,1424 205,708 205,1429 0,722 -205,1425 -205,704 -620,1422 z"
                 transform="scale(0.015625)" />
            </defs>
            <use
               xlink:href="#DejaVuSans-74"
               id="use872" />
            <use
               xlink:href="#DejaVuSans-69"
               x="39.208984"
               id="use874" />
            <use
               xlink:href="#DejaVuSans-6d"
               x="66.992188"
               id="use876" />
            <use
               xlink:href="#DejaVuSans-65"
               x="164.4043"
               id="use878" />
            <use
               xlink:href="#DejaVuSans-20"
               x="225.92773"
               id="use880" />
            <use
               xlink:href="#DejaVuSans-28"
               x="257.71484"
               id="use882" />
            <use
               xlink:href="#DejaVuSans-6d"
               x="296.72852"
               id="use884" />
            <use
               xlink:href="#DejaVuSans-73"
               x="394.14062"
               id="use886" />
            <use
               xlink:href="#DejaVuSans-29"
               x="446.24023"
               id="use888" />
          </g>
        </g>
      </g>
      <g
         id="matplotlib.axis_2">
        <g
           id="ytick_1">
          <g
             id="line2d_15">
            <path
               d="M 57.6,267.57415 H 414.72"
               clip-path="url(#p12aef373d2)"
               style="fill:none;stroke:#b0b0b0;stroke-width:0.8;stroke-linecap:square"
               id="path894" />
          </g>
          <g
             id="line2d_16">
            <defs
               id="defs898">
              <path
                 id="m5a17dc78c9"
                 d="M 0,0 H -3.5"
                 style="stroke:#000000;stroke-width:0.8" />
            </defs>
            <g
               id="g902">
              <use
                 xlink:href="#m5a17dc78c9"
                 x="57.599998"
                 y="267.57416"
                 style="stroke:#000000;stroke-width:0.8"
                 id="use900" />
            </g>
          </g>
          <g
             id="text_9">
            <!-- −50 -->
            <g
               transform="matrix(0.1,0,0,-0.1,29.495313,271.37337)"
               id="g914">
              <defs
                 id="defs906">
                <path
                   id="DejaVuSans-2212"
                   d="M 678,2272 H 4684 V 1741 H 678 Z"
                   transform="scale(0.015625)" />
              </defs>
              <use
                 xlink:href="#DejaVuSans-2212"
                 id="use908" />
              <use
                 xlink:href="#DejaVuSans-35"
                 x="83.789062"
                 id="use910" />
              <use
                 xlink:href="#DejaVuSans-30"
                 x="147.41211"
                 id="use912" />
            </g>
          </g>
        </g>
        <g
           id="ytick_2">
          <g
             id="line2d_17">
            <path
               d="M 57.6,221.05108 H 414.72"
               clip-path="url(#p12aef373d2)"
               style="fill:none;stroke:#b0b0b0;stroke-width:0.8;stroke-linecap:square"
               id="path918" />
          </g>
          <g
             id="line2d_18">
            <g
               id="g923">
              <use
                 xlink:href="#m5a17dc78c9"
                 x="57.599998"
                 y="221.05107"
                 style="stroke:#000000;stroke-width:0.8"
                 id="use921" />
            </g>
          </g>
          <g
             id="text_10">
            <!-- 0 -->
            <g
               transform="matrix(0.1,0,0,-0.1,44.2375,224.8503)"
               id="g928">
              <use
                 xlink:href="#DejaVuSans-30"
                 id="use926" />
            </g>
          </g>
        </g>
        <g
           id="ytick_3">
          <g
             id="line2d_19">
            <path
               d="M 57.6,174.528 H 414.72"
               clip-path="url(#p12aef373d2)"
               style="fill:none;stroke:#b0b0b0;stroke-width:0.8;stroke-linecap:square"
               id="path932" />
          </g>
          <g
             id="line2d_20">
            <g
               id="g937">
              <use
                 xlink:href="#m5a17dc78c9"
                 x="57.599998"
                 y="174.528"
                 style="stroke:#000000;stroke-width:0.8"
                 id="use935" />
            </g>
          </g>
          <g
             id="text_11">
            <!-- 50 -->
            <g
               transform="matrix(0.1,0,0,-0.1,37.875,178.32722)"
               id="g944">
              <use
                 xlink:href="#DejaVuSans-35"
                 id="use940" />
              <use
                 xlink:href="#DejaVuSans-30"
                 x="63.623047"
                 id="use942" />
            </g>
          </g>
        </g>
        <g
           id="ytick_4">
          <g
             id="line2d_21">
            <path
               d="M 57.6,128.00492 H 414.72"
               clip-path="url(#p12aef373d2)"
               style="fill:none;stroke:#b0b0b0;stroke-width:0.8;stroke-linecap:square"
               id="path948" />
          </g>
          <g
             id="line2d_22">
            <g
               id="g953">
              <use
                 xlink:href="#m5a17dc78c9"
                 x="57.599998"
                 y="128.00493"
                 style="stroke:#000000;stroke-width:0.8"
                 id="use951" />
            </g>
          </g>
          <g
             id="text_12">
            <!-- 100 -->
            <g
               transform="matrix(0.1,0,0,-0.1,31.5125,131.80414)"
               id="g962">
              <use
                 xlink:href="#DejaVuSans-31"
                 id="use956" />
              <use
                 xlink:href="#DejaVuSans-30"
                 x="63.623047"
                 id="use958" />
              <use
                 xlink:href="#DejaVuSans-30"
                 x="127.24609"
                 id="use960" />
            </g>
          </g>
        </g>
        <g
           id="ytick_5">
          <g
             id="line2d_23">
            <path
               d="M 57.6,81.481846 H 414.72"
               clip-path="url(#p12aef373d2)"
               style="fill:none;stroke:#b0b0b0;stroke-width:0.8;stroke-linecap:square"
               id="path966" />
          </g>
          <g
             id="line2d_24">
            <g
               id="g971">
              <use
                 xlink:href="#m5a17dc78c9"
                 x="57.599998"
                 y="81.48185"
                 style="stroke:#000000;stroke-width:0.8"
                 id="use969" />
            </g>
          </g>
          <g
             id="text_13">
            <!-- 150 -->
            <g
               transform="matrix(0.1,0,0,-0.1,31.5125,85.281065)"
               id="g980">
              <use
                 xlink:href="#DejaVuSans-31"
                 id="use974" />
              <use
                 xlink:href="#DejaVuSans-35"
                 x="63.623047"
                 id="use976" />
              <use
                 xlink:href="#DejaVuSans-30"
                 x="127.24609"
                 id="use978" />
            </g>
          </g>
        </g>
      </g>
      <g
         id="line2d_25">
        <path
           d="M 73.832727,146.61415 H 236.15946 l 0.11146,148.87385 h 162.21635 v 0"
           clip-path="url(#p12aef373d2)"
           style="fill:none;stroke:#1f77b4;stroke-width:1.5;stroke-linecap:square"
           id="path985" />
      </g>
      <g
         id="line2d_26">
        <path
           d="M 73.832727,221.05108 236.25794,109.46269 398.48727,221.05033 v 0"
           clip-path="url(#p12aef373d2)"
           style="fill:none;stroke:#ff7f0e;stroke-width:1.5;stroke-linecap:square"
           id="path988" />
      </g>
      <g
         id="line2d_27">
        <path
           d="m 73.832727,221.05108 5.913061,-0.11112 5.915226,-0.33351 5.921719,-0.55665 5.931458,-0.78099 5.946609,-1.00746 5.96501,-1.23639 5.98665,-1.46826 6.0137,-1.70424 6.04401,-1.94443 6.07755,-2.18935 6.11543,-2.43996 6.15655,-2.69648 6.20092,-2.95943 6.24854,-3.22938 6.2994,-3.50687 6.35351,-3.79248 6.40979,-4.08605 6.4693,-4.38879 6.53099,-4.70046 6.59592,-5.02236 6.66302,-5.35421 6.73227,-5.69646 6.8037,-6.04957 6.87729,-6.41402 6.95196,-6.78919 8.22894,-8.37512 7.05368,-6.98397 6.97469,-6.59481 6.89785,-6.21805 6.82318,-5.8532 6.75067,-5.4998 6.68033,-5.157353 6.61215,-4.825393 6.54614,-4.503478 6.48338,-4.191833 6.42277,-3.889216 6.36433,-3.595199 6.31022,-3.310458 6.25828,-3.033233 6.20958,-2.763588 6.16413,-2.500964 6.12192,-2.244808 6.08405,-1.994915 6.04941,-1.750293 6.01804,-1.510418 5.99098,-1.274985 5.96717,-1.043146 5.94877,-0.814657 5.93362,-0.588514 5.9228,-0.36427 5.91523,-0.141266 0.79865,-0.002 v 0"
           clip-path="url(#p12aef373d2)"
           style="fill:none;stroke:#2ca02c;stroke-width:1.5;stroke-linecap:square"
           id="path991" />
      </g>
      <g
         id="patch_3">
        <path
           d="M 57.6,307.584 V 41.472"
           style="fill:none;stroke:#000000;stroke-width:0.8;stroke-linecap:square;stroke-linejoin:miter"
           id="path994" />
      </g>
      <g
         id="patch_4">
        <path
           d="M 414.72,307.584 V 41.472"
           style="fill:none;stroke:#000000;stroke-width:0.8;stroke-linecap:square;stroke-linejoin:miter"
           id="path997" />
      </g>
      <g
         id="patch_5">
        <path
           d="M 57.6,307.584 H 414.72"
           style="fill:none;stroke:#000000;stroke-width:0.8;stroke-linecap:square;stroke-linejoin:miter"
           id="path1000" />
      </g>
      <g
         id="patch_6">
        <path
           d="M 57.6,41.472 H 414.72"
           style="fill:none;stroke:#000000;stroke-width:0.8;stroke-linecap:square;stroke-linejoin:miter"
           id="path1003" />
      </g>
      <g
         id="text_14">
        <!-- Motion profile of a motor running over 180° for 3s -->
        <g
           transform="matrix(0.12,0,0,-0.12,86.0625,35.472)"
           id="g1121">
          <defs
             id="defs1019">
            <path
               id="DejaVuSans-4d"
               d="m 628,4666 h 941 L 2759,1491 3956,4666 h 941 V 0 H 4281 V 4097 L 3078,897 H 2444 L 1241,4097 V 0 H 628 Z"
               transform="scale(0.015625)" />
            <path
               id="DejaVuSans-6f"
               d="m 1959,3097 q -462,0 -731,-361 -269,-361 -269,-989 0,-628 267,-989 268,-361 733,-361 460,0 728,362 269,363 269,988 0,622 -269,986 -268,364 -728,364 z m 0,487 q 750,0 1178,-488 429,-487 429,-1349 Q 3566,888 3137,398 2709,-91 1959,-91 1206,-91 779,398 353,888 353,1747 q 0,862 426,1349 427,488 1180,488 z"
               transform="scale(0.015625)" />
            <path
               id="DejaVuSans-6e"
               d="M 3513,2113 V 0 h -575 v 2094 q 0,497 -194,743 -194,247 -581,247 -466,0 -735,-297 -269,-296 -269,-809 V 0 H 581 v 3500 h 578 v -544 q 207,316 486,472 280,156 646,156 603,0 912,-373 310,-373 310,-1098 z"
               transform="scale(0.015625)" />
            <path
               id="DejaVuSans-70"
               d="M 1159,525 V -1331 H 581 v 4831 h 578 v -531 q 182,312 458,463 277,152 661,152 638,0 1036,-506 399,-506 399,-1331 0,-825 -399,-1332 -398,-506 -1036,-506 -384,0 -661,152 -276,152 -458,464 z m 1957,1222 q 0,634 -261,995 -261,361 -717,361 -457,0 -718,-361 -261,-361 -261,-995 0,-634 261,-995 261,-361 718,-361 456,0 717,361 261,361 261,995 z"
               transform="scale(0.015625)" />
            <path
               id="DejaVuSans-72"
               d="m 2631,2963 q -97,56 -211,82 -114,27 -251,27 -488,0 -749,-317 -261,-317 -261,-911 V 0 H 581 v 3500 h 578 v -544 q 182,319 472,473 291,155 707,155 59,0 131,-8 72,-7 159,-23 z"
               transform="scale(0.015625)" />
            <path
               id="DejaVuSans-66"
               d="m 2375,4863 v -479 h -550 q -309,0 -430,-125 -120,-125 -120,-450 v -309 h 947 V 3053 H 1275 V 0 H 697 V 3053 H 147 v 447 h 550 v 244 q 0,584 272,851 272,268 862,268 z"
               transform="scale(0.015625)" />
            <path
               id="DejaVuSans-6c"
               d="m 603,4863 h 575 V 0 H 603 Z"
               transform="scale(0.015625)" />
            <path
               id="DejaVuSans-61"
               d="m 2194,1759 q -697,0 -966,-159 -269,-159 -269,-544 0,-306 202,-486 202,-179 548,-179 479,0 768,339 289,339 289,901 v 128 z m 1147,238 V 0 H 2766 V 531 Q 2569,213 2275,61 1981,-91 1556,-91 q -537,0 -855,302 -317,302 -317,808 0,590 395,890 396,300 1180,300 h 807 v 57 q 0,397 -261,614 -261,217 -733,217 -300,0 -585,-72 -284,-72 -546,-216 v 532 q 315,122 612,182 297,61 578,61 760,0 1135,-394 375,-393 375,-1193 z"
               transform="scale(0.015625)" />
            <path
               id="DejaVuSans-75"
               d="m 544,1381 v 2119 h 575 V 1403 q 0,-497 193,-746 194,-248 582,-248 465,0 735,297 271,297 271,810 v 1984 h 575 V 0 H 2900 V 538 Q 2691,219 2414,64 2138,-91 1772,-91 1169,-91 856,284 544,659 544,1381 Z m 1447,2203 z"
               transform="scale(0.015625)" />
            <path
               id="DejaVuSans-67"
               d="m 2906,1791 q 0,625 -258,968 -257,344 -723,344 -462,0 -720,-344 -258,-343 -258,-968 0,-622 258,-966 258,-344 720,-344 466,0 723,344 258,344 258,966 z M 3481,434 q 0,-893 -397,-1329 -396,-436 -1215,-436 -303,0 -572,45 -269,45 -522,139 v 559 q 253,-137 500,-202 247,-66 503,-66 566,0 847,295 281,295 281,892 V 616 Q 2728,306 2450,153 2172,0 1784,0 1141,0 747,490 353,981 353,1791 q 0,812 394,1302 394,491 1037,491 388,0 666,-153 278,-153 456,-462 v 531 h 575 z"
               transform="scale(0.015625)" />
            <path
               id="DejaVuSans-76"
               d="M 191,3500 H 800 L 1894,563 2988,3500 h 609 L 2284,0 h -781 z"
               transform="scale(0.015625)" />
            <path
               id="DejaVuSans-38"
               d="m 2034,2216 q -450,0 -708,-241 -257,-241 -257,-662 0,-422 257,-663 258,-241 708,-241 450,0 709,242 260,243 260,662 0,421 -258,662 -257,241 -711,241 z m -631,268 q -406,100 -633,378 -226,279 -226,679 0,559 398,884 399,325 1092,325 697,0 1094,-325 397,-325 397,-884 0,-400 -227,-679 -226,-278 -629,-378 456,-106 710,-416 255,-309 255,-755 Q 3634,634 3220,271 2806,-91 2034,-91 1263,-91 848,271 434,634 434,1313 q 0,446 256,755 257,310 713,416 z m -231,997 q 0,-362 226,-565 227,-203 636,-203 407,0 636,203 230,203 230,565 0,363 -230,566 -229,203 -636,203 -409,0 -636,-203 -226,-203 -226,-566 z"
               transform="scale(0.015625)" />
            <path
               id="DejaVuSans-b0"
               d="m 1600,4347 q -250,0 -422,-174 -172,-173 -172,-423 0,-247 172,-417 172,-170 422,-170 250,0 422,170 172,170 172,417 0,247 -174,422 -173,175 -420,175 z m 0,403 q 200,0 384,-77 185,-76 319,-220 144,-140 216,-319 72,-178 72,-384 0,-412 -289,-698 -289,-286 -708,-286 -422,0 -704,281 -281,281 -281,703 0,419 287,709 288,291 704,291 z"
               transform="scale(0.015625)" />
          </defs>
          <use
             xlink:href="#DejaVuSans-4d"
             id="use1021" />
          <use
             xlink:href="#DejaVuSans-6f"
             x="86.279297"
             id="use1023" />
          <use
             xlink:href="#DejaVuSans-74"
             x="147.46094"
             id="use1025" />
          <use
             xlink:href="#DejaVuSans-69"
             x="186.66992"
             id="use1027" />
          <use
             xlink:href="#DejaVuSans-6f"
             x="214.45312"
             id="use1029" />
          <use
             xlink:href="#DejaVuSans-6e"
             x="275.63477"
             id="use1031" />
          <use
             xlink:href="#DejaVuSans-20"
             x="339.01367"
             id="use1033" />
          <use
             xlink:href="#DejaVuSans-70"
             x="370.80078"
             id="use1035" />
          <use
             xlink:href="#DejaVuSans-72"
             x="434.27734"
             id="use1037" />
          <use
             xlink:href="#DejaVuSans-6f"
             x="473.14062"
             id="use1039" />
          <use
             xlink:href="#DejaVuSans-66"
             x="534.32227"
             id="use1041" />
          <use
             xlink:href="#DejaVuSans-69"
             x="569.52734"
             id="use1043" />
          <use
             xlink:href="#DejaVuSans-6c"
             x="597.31055"
             id="use1045" />
          <use
             xlink:href="#DejaVuSans-65"
             x="625.09375"
             id="use1047" />
          <use
             xlink:href="#DejaVuSans-20"
             x="686.61719"
             id="use1049" />
          <use
             xlink:href="#DejaVuSans-6f"
             x="718.4043"
             id="use1051" />
          <use
             xlink:href="#DejaVuSans-66"
             x="779.58594"
             id="use1053" />
          <use
             xlink:href="#DejaVuSans-20"
             x="814.79102"
             id="use1055" />
          <use
             xlink:href="#DejaVuSans-61"
             x="846.57812"
             id="use1057" />
          <use
             xlink:href="#DejaVuSans-20"
             x="907.85742"
             id="use1059" />
          <use
             xlink:href="#DejaVuSans-6d"
             x="939.64453"
             id="use1061" />
          <use
             xlink:href="#DejaVuSans-6f"
             x="1037.0566"
             id="use1063" />
          <use
             xlink:href="#DejaVuSans-74"
             x="1098.2383"
             id="use1065" />
          <use
             xlink:href="#DejaVuSans-6f"
             x="1137.4473"
             id="use1067" />
          <use
             xlink:href="#DejaVuSans-72"
             x="1198.6289"
             id="use1069" />
          <use
             xlink:href="#DejaVuSans-20"
             x="1239.7422"
             id="use1071" />
          <use
             xlink:href="#DejaVuSans-72"
             x="1271.5293"
             id="use1073" />
          <use
             xlink:href="#DejaVuSans-75"
             x="1312.6426"
             id="use1075" />
          <use
             xlink:href="#DejaVuSans-6e"
             x="1376.0215"
             id="use1077" />
          <use
             xlink:href="#DejaVuSans-6e"
             x="1439.4004"
             id="use1079" />
          <use
             xlink:href="#DejaVuSans-69"
             x="1502.7793"
             id="use1081" />
          <use
             xlink:href="#DejaVuSans-6e"
             x="1530.5625"
             id="use1083" />
          <use
             xlink:href="#DejaVuSans-67"
             x="1593.9414"
             id="use1085" />
          <use
             xlink:href="#DejaVuSans-20"
             x="1657.418"
             id="use1087" />
          <use
             xlink:href="#DejaVuSans-6f"
             x="1689.2051"
             id="use1089" />
          <use
             xlink:href="#DejaVuSans-76"
             x="1750.3867"
             id="use1091" />
          <use
             xlink:href="#DejaVuSans-65"
             x="1809.5664"
             id="use1093" />
          <use
             xlink:href="#DejaVuSans-72"
             x="1871.0898"
             id="use1095" />
          <use
             xlink:href="#DejaVuSans-20"
             x="1912.2031"
             id="use1097" />
          <use
             xlink:href="#DejaVuSans-31"
             x="1943.9902"
             id="use1099" />
          <use
             xlink:href="#DejaVuSans-38"
             x="2007.6133"
             id="use1101" />
          <use
             xlink:href="#DejaVuSans-30"
             x="2071.2363"
             id="use1103" />
          <use
             xlink:href="#DejaVuSans-b0"
             x="2134.8594"
             id="use1105" />
          <use
             xlink:href="#DejaVuSans-20"
             x="2184.8594"
             id="use1107" />
          <use
             xlink:href="#DejaVuSans-66"
             x="2216.6465"
             id="use1109" />
          <use
             xlink:href="#DejaVuSans-6f"
             x="2251.8516"
             id="use1111" />
          <use
             xlink:href="#DejaVuSans-72"
             x="2313.0332"
             id="use1113" />
          <use
             xlink:href="#DejaVuSans-20"
             x="2354.1465"
             id="use1115" />
          <use
             xlink:href="#DejaVuSans-33"
             x="2385.9336"
             id="use1117" />
          <use
             xlink:href="#DejaVuSans-73"
             x="2449.5566"
             id="use1119" />
        </g>
      </g>
      <g
         id="legend_1">
        <g
           id="patch_7">
          <path
             d="m 64.6,93.506375 h 131.93437 q 2,0 2,-2 V 48.472 q 0,-2 -2,-2 H 64.6 q -2,0 -2,2 v 43.034375 q 0,2 2,2 z"
             style="opacity:0.8;fill:#ffffff;stroke:#cccccc;stroke-linejoin:miter"
             id="path1124" />
        </g>
        <g
           id="line2d_28">
          <path
             d="m 66.6,54.570438 h 10 10"
             style="fill:none;stroke:#1f77b4;stroke-width:1.5;stroke-linecap:square"
             id="path1127" />
        </g>
        <g
           id="text_15">
          <!-- Acceleration, deg/s² -->
          <g
             transform="matrix(0.1,0,0,-0.1,94.6,58.070438)"
             id="g1178">
            <defs
               id="defs1136">
              <path
                 id="DejaVuSans-41"
                 d="M 2188,4044 1331,1722 h 1716 z m -357,622 h 716 L 4325,0 H 3669 L 3244,1197 H 1141 L 716,0 H 50 Z"
                 transform="scale(0.015625)" />
              <path
                 id="DejaVuSans-63"
                 d="m 3122,3366 v -538 q -244,135 -489,202 -245,67 -495,67 -560,0 -870,-355 -309,-354 -309,-995 0,-641 309,-996 310,-354 870,-354 250,0 495,67 245,67 489,202 V 134 Q 2881,22 2623,-34 2366,-91 2075,-91 1284,-91 818,406 353,903 353,1747 q 0,856 470,1346 471,491 1290,491 265,0 518,-55 253,-54 491,-163 z"
                 transform="scale(0.015625)" />
              <path
                 id="DejaVuSans-2c"
                 d="m 750,794 h 659 V 256 L 897,-744 H 494 L 750,256 Z"
                 transform="scale(0.015625)" />
              <path
                 id="DejaVuSans-64"
                 d="m 2906,2969 v 1894 h 575 V 0 H 2906 V 525 Q 2725,213 2448,61 2172,-91 1784,-91 1150,-91 751,415 353,922 353,1747 q 0,825 398,1331 399,506 1033,506 388,0 664,-152 277,-151 458,-463 z M 947,1747 q 0,-634 261,-995 261,-361 717,-361 456,0 718,361 263,361 263,995 0,634 -263,995 -262,361 -718,361 -456,0 -717,-361 -261,-361 -261,-995 z"
                 transform="scale(0.015625)" />
              <path
                 id="DejaVuSans-2f"
                 d="m 1625,4666 h 531 L 531,-594 H 0 Z"
                 transform="scale(0.015625)" />
              <path
                 id="DejaVuSans-b2"
                 d="M 838,2444 H 2163 V 2088 H 294 v 343 q 106,97 303,272 1075,953 1075,1247 0,206 -163,332 -162,127 -428,127 -162,0 -353,-55 -190,-54 -415,-163 v 384 q 240,88 448,131 208,44 386,44 453,0 725,-206 272,-206 272,-544 0,-434 -1035,-1322 -175,-150 -271,-234 z"
                 transform="scale(0.015625)" />
            </defs>
            <use
               xlink:href="#DejaVuSans-41"
               id="use1138" />
            <use
               xlink:href="#DejaVuSans-63"
               x="66.658203"
               id="use1140" />
            <use
               xlink:href="#DejaVuSans-63"
               x="121.63867"
               id="use1142" />
            <use
               xlink:href="#DejaVuSans-65"
               x="176.61914"
               id="use1144" />
            <use
               xlink:href="#DejaVuSans-6c"
               x="238.14258"
               id="use1146" />
            <use
               xlink:href="#DejaVuSans-65"
               x="265.92578"
               id="use1148" />
            <use
               xlink:href="#DejaVuSans-72"
               x="327.44922"
               id="use1150" />
            <use
               xlink:href="#DejaVuSans-61"
               x="368.5625"
               id="use1152" />
            <use
               xlink:href="#DejaVuSans-74"
               x="429.8418"
               id="use1154" />
            <use
               xlink:href="#DejaVuSans-69"
               x="469.05078"
               id="use1156" />
            <use
               xlink:href="#DejaVuSans-6f"
               x="496.83398"
               id="use1158" />
            <use
               xlink:href="#DejaVuSans-6e"
               x="558.01562"
               id="use1160" />
            <use
               xlink:href="#DejaVuSans-2c"
               x="621.39453"
               id="use1162" />
            <use
               xlink:href="#DejaVuSans-20"
               x="653.18164"
               id="use1164" />
            <use
               xlink:href="#DejaVuSans-64"
               x="684.96875"
               id="use1166" />
            <use
               xlink:href="#DejaVuSans-65"
               x="748.44531"
               id="use1168" />
            <use
               xlink:href="#DejaVuSans-67"
               x="809.96875"
               id="use1170" />
            <use
               xlink:href="#DejaVuSans-2f"
               x="873.44531"
               id="use1172" />
            <use
               xlink:href="#DejaVuSans-73"
               x="907.13672"
               id="use1174" />
            <use
               xlink:href="#DejaVuSans-b2"
               x="959.23633"
               id="use1176" />
          </g>
        </g>
        <g
           id="line2d_29">
          <path
             d="m 66.6,69.248563 h 10 10"
             style="fill:none;stroke:#ff7f0e;stroke-width:1.5;stroke-linecap:square"
             id="path1181" />
        </g>
        <g
           id="text_16">
          <!-- Velocity, deg/s -->
          <g
             transform="matrix(0.1,0,0,-0.1,94.6,72.748563)"
             id="g1218">
            <defs
               id="defs1186">
              <path
                 id="DejaVuSans-56"
                 d="M 1831,0 50,4666 H 709 L 2188,738 3669,4666 h 656 L 2547,0 Z"
                 transform="scale(0.015625)" />
              <path
                 id="DejaVuSans-79"
                 d="m 2059,-325 q -243,-625 -475,-815 -231,-191 -618,-191 H 506 v 481 h 338 q 237,0 368,113 132,112 291,531 L 1606,56 191,3500 H 800 L 1894,763 2988,3500 h 609 z"
                 transform="scale(0.015625)" />
            </defs>
            <use
               xlink:href="#DejaVuSans-56"
               id="use1188" />
            <use
               xlink:href="#DejaVuSans-65"
               x="60.658203"
               id="use1190" />
            <use
               xlink:href="#DejaVuSans-6c"
               x="122.18164"
               id="use1192" />
            <use
               xlink:href="#DejaVuSans-6f"
               x="149.96484"
               id="use1194" />
            <use
               xlink:href="#DejaVuSans-63"
               x="211.14648"
               id="use1196" />
            <use
               xlink:href="#DejaVuSans-69"
               x="266.12695"
               id="use1198" />
            <use
               xlink:href="#DejaVuSans-74"
               x="293.91016"
               id="use1200" />
            <use
               xlink:href="#DejaVuSans-79"
               x="333.11914"
               id="use1202" />
            <use
               xlink:href="#DejaVuSans-2c"
               x="392.29883"
               id="use1204" />
            <use
               xlink:href="#DejaVuSans-20"
               x="424.08594"
               id="use1206" />
            <use
               xlink:href="#DejaVuSans-64"
               x="455.87305"
               id="use1208" />
            <use
               xlink:href="#DejaVuSans-65"
               x="519.34961"
               id="use1210" />
            <use
               xlink:href="#DejaVuSans-67"
               x="580.87305"
               id="use1212" />
            <use
               xlink:href="#DejaVuSans-2f"
               x="644.34961"
               id="use1214" />
            <use
               xlink:href="#DejaVuSans-73"
               x="678.04102"
               id="use1216" />
          </g>
        </g>
        <g
           id="line2d_30">
          <path
             d="m 66.6,83.926688 h 10 10"
             style="fill:none;stroke:#2ca02c;stroke-width:1.5;stroke-linecap:square"
             id="path1221" />
        </g>
        <g
           id="text_17">
          <!-- Position, deg -->
          <g
             transform="matrix(0.1,0,0,-0.1,94.6,87.426688)"
             id="g1253">
            <defs
               id="defs1225">
              <path
                 id="DejaVuSans-50"
                 d="M 1259,4147 V 2394 h 794 q 441,0 681,228 241,228 241,650 0,419 -241,647 -240,228 -681,228 z m -631,519 h 1425 q 785,0 1186,-355 402,-355 402,-1039 0,-691 -402,-1044 -401,-353 -1186,-353 H 1259 V 0 H 628 Z"
                 transform="scale(0.015625)" />
            </defs>
            <use
               xlink:href="#DejaVuSans-50"
               id="use1227" />
            <use
               xlink:href="#DejaVuSans-6f"
               x="56.677734"
               id="use1229" />
            <use
               xlink:href="#DejaVuSans-73"
               x="117.85938"
               id="use1231" />
            <use
               xlink:href="#DejaVuSans-69"
               x="169.95898"
               id="use1233" />
            <use
               xlink:href="#DejaVuSans-74"
               x="197.74219"
               id="use1235" />
            <use
               xlink:href="#DejaVuSans-69"
               x="236.95117"
               id="use1237" />
            <use
               xlink:href="#DejaVuSans-6f"
               x="264.73438"
               id="use1239" />
            <use
               xlink:href="#DejaVuSans-6e"
               x="325.91602"
               id="use1241" />
            <use
               xlink:href="#DejaVuSans-2c"
               x="389.29492"
               id="use1243" />
            <use
               xlink:href="#DejaVuSans-20"
               x="421.08203"
               id="use1245" />
            <use
               xlink:href="#DejaVuSans-64"
               x="452.86914"
               id="use1247" />
            <use
               xlink:href="#DejaVuSans-65"
               x="516.3457"
               id="use1249" />
            <use
               xlink:href="#DejaVuSans-67"
               x="577.86914"
               id="use1251" />
          </g>
        </g>
      </g>
    </g>
  </g>
  <defs
     id="defs1262">
    <clipPath
       id="p12aef373d2">
      <rect
         x="57.599998"
         y="41.472"
         width="357.12"
         height="266.112"
         id="rect1259" />
    </clipPath>
  </defs>
</svg>
